<svg width="200" height="200" viewBox="0 0 200 200" fill="none" xmlns="http://www.w3.org/2000/svg">
<path d="M179.96 159.396H166.712V159.496H179.96V159.396Z" fill="#EBEBEB"/>
<path d="M132.488 160.484H129.012V160.584H132.488V160.484Z" fill="#EBEBEB"/>
<path d="M166.312 155.684H158.636V155.784H166.312V155.684Z" fill="#EBEBEB"/>
<path d="M38.26 156.356H20.984V156.456H38.26V156.356Z" fill="#EBEBEB"/>
<path d="M44.356 156.356H41.824V156.456H44.356V156.356Z" fill="#EBEBEB"/>
<path d="M90.06 158.044H52.588V158.144H90.06V158.044Z" fill="#EBEBEB"/>
<path d="M95.36 135.12H18.12C17.5142 135.12 16.9333 134.879 16.505 134.451C16.0766 134.023 15.836 133.442 15.836 132.836V24.264C15.8413 23.6617 16.0842 23.0859 16.512 22.6619C16.9398 22.2379 17.5177 22 18.12 22H95.36C95.6599 22 95.9569 22.0591 96.234 22.1739C96.5112 22.2886 96.7629 22.4569 96.975 22.669C97.1871 22.8811 97.3554 23.1328 97.4701 23.41C97.5849 23.6871 97.644 23.9841 97.644 24.284V132.836C97.644 133.136 97.5849 133.433 97.4701 133.71C97.3554 133.987 97.1871 134.239 96.975 134.451C96.7629 134.663 96.5112 134.831 96.234 134.946C95.9569 135.061 95.6599 135.12 95.36 135.12ZM18.12 22.08C17.5411 22.0811 16.9862 22.3115 16.5768 22.7208C16.1675 23.1302 15.9371 23.6851 15.936 24.264V132.836C15.9371 133.415 16.1675 133.97 16.5768 134.379C16.9862 134.788 17.5411 135.019 18.12 135.02H95.36C95.9389 135.019 96.4938 134.788 96.9032 134.379C97.3125 133.97 97.5429 133.415 97.544 132.836V24.264C97.5429 23.6851 97.3125 23.1302 96.9032 22.7208C96.4938 22.3115 95.9389 22.0811 95.36 22.08H18.12Z" fill="#EBEBEB"/>
<path d="M181.88 135.12H104.64C104.034 135.12 103.453 134.879 103.025 134.451C102.597 134.023 102.356 133.442 102.356 132.836V24.264C102.361 23.6617 102.604 23.0859 103.032 22.6619C103.46 22.2379 104.038 22 104.64 22H181.88C182.486 22 183.067 22.2406 183.495 22.669C183.923 23.0973 184.164 23.6782 184.164 24.284V132.836C184.164 133.442 183.923 134.023 183.495 134.451C183.067 134.879 182.486 135.12 181.88 135.12ZM104.64 22.08C104.061 22.0811 103.506 22.3115 103.097 22.7208C102.688 23.1302 102.457 23.6851 102.456 24.264V132.836C102.457 133.415 102.688 133.97 103.097 134.379C103.506 134.788 104.061 135.019 104.64 135.02H181.88C182.459 135.019 183.014 134.788 183.423 134.379C183.833 133.97 184.063 133.415 184.064 132.836V24.264C184.063 23.6851 183.833 23.1302 183.423 22.7208C183.014 22.3115 182.459 22.0811 181.88 22.08H104.64Z" fill="#EBEBEB"/>
<path d="M200 152.96H0V153.06H200V152.96Z" fill="#EBEBEB"/>
<path d="M167.44 115.02C166.672 115.788 166.312 119.216 166.312 119.216C166.312 119.216 165.948 115.788 165.18 115.02C164.412 114.252 160.988 113.892 160.988 113.892C160.988 113.892 164.412 113.532 165.18 112.764C165.948 111.996 166.312 108.568 166.312 108.568C166.312 108.568 166.672 111.996 167.44 112.764C168.208 113.532 171.636 113.892 171.636 113.892C171.636 113.892 168.208 114.252 167.44 115.02Z" fill="#F5F5F5"/>
<path d="M173.08 132.308C171.88 133.508 171.336 138.788 171.336 138.788C171.336 138.788 170.776 133.496 169.592 132.308C168.408 131.12 163.108 130.56 163.108 130.56C163.108 130.56 168.4 130 169.6 128.8C170.8 127.6 171.344 122.316 171.344 122.316C171.344 122.316 171.904 127.612 173.088 128.8C174.272 129.988 179.572 130.544 179.572 130.544C179.572 130.544 174.268 131.12 173.08 132.308Z" fill="#F0F0F0"/>
<path d="M160.4 137.076C159.888 137.588 159.644 139.876 159.644 139.876C159.644 139.876 159.404 137.584 158.892 137.076C158.38 136.568 156.092 136.32 156.092 136.32C156.092 136.32 158.384 136.08 158.892 135.564C159.4 135.048 159.644 132.764 159.644 132.764C159.644 132.764 159.888 135.056 160.4 135.564C160.912 136.072 163.2 136.32 163.2 136.32C163.2 136.32 160.896 136.56 160.4 137.076Z" fill="#EBEBEB"/>
<path d="M44.676 44.308C46.116 45.748 52.552 46.428 52.552 46.428C52.552 46.428 46.116 47.108 44.676 48.548C43.236 49.988 42.552 56.428 42.552 56.428C42.552 56.428 41.872 49.992 40.432 48.548C38.992 47.104 32.552 46.428 32.552 46.428C32.552 46.428 38.988 45.748 40.432 44.308C41.876 42.868 42.552 36.428 42.552 36.428C42.552 36.428 43.232 42.864 44.676 44.308Z" fill="#F5F5F5"/>
<path d="M55.308 35.368C56.028 36.088 59.248 36.428 59.248 36.428C59.248 36.428 56.028 36.768 55.308 37.488C54.588 38.208 54.248 41.428 54.248 41.428C54.248 41.428 53.908 38.228 53.188 37.488C52.468 36.748 49.248 36.428 49.248 36.428C49.248 36.428 52.448 36.088 53.188 35.368C53.928 34.648 54.248 31.428 54.248 31.428C54.248 31.428 54.588 34.644 55.308 35.368Z" fill="#F0F0F0"/>
<path d="M68.852 50C69.368 50.512 71.652 50.756 71.652 50.756C71.652 50.756 69.364 50.996 68.852 51.512C68.34 52.028 68.096 54.312 68.096 54.312C68.096 54.312 67.856 52.02 67.34 51.512C66.824 51.004 64.54 50.756 64.54 50.756C64.54 50.756 66.832 50.512 67.34 50C67.848 49.488 68.096 47.2 68.096 47.2C68.096 47.2 68.34 49.492 68.852 50Z" fill="#EBEBEB"/>
<path d="M135.544 34.728C134.776 35.496 134.4 38.924 134.4 38.924C134.4 38.924 134.04 35.496 133.272 34.728C132.504 33.96 129.092 33.6 129.092 33.6C129.092 33.6 132.52 33.236 133.288 32.468C134.056 31.7 134.4 28.276 134.4 28.276C134.4 28.276 134.76 31.704 135.528 32.468C136.296 33.232 139.74 33.6 139.74 33.6C139.74 33.6 136.312 33.96 135.544 34.728Z" fill="#F5F5F5"/>
<path d="M77.944 32.028C77.3064 32.028 76.683 32.2171 76.1528 32.5713C75.6227 32.9256 75.2094 33.4291 74.9654 34.0182C74.7214 34.6073 74.6576 35.2556 74.782 35.881C74.9063 36.5064 75.2134 37.0808 75.6643 37.5317C76.1152 37.9826 76.6896 38.2897 77.315 38.4141C77.9404 38.5385 78.5887 38.4746 79.1778 38.2306C79.7669 37.9866 80.2704 37.5733 80.6247 37.0432C80.9789 36.513 81.168 35.8896 81.168 35.252C81.1685 34.8285 81.0855 34.409 80.9237 34.0176C80.7618 33.6262 80.5244 33.2706 80.2249 32.9711C79.9254 32.6716 79.5698 32.4342 79.1784 32.2723C78.787 32.1105 78.3675 32.0275 77.944 32.028ZM77.944 34.428C76.964 34.428 76.168 35.432 76.168 34.452C76.1566 34.2114 76.1941 33.971 76.2783 33.7454C76.3625 33.5197 76.4917 33.3135 76.6579 33.1392C76.8241 32.9649 77.024 32.8261 77.2454 32.7313C77.4668 32.6365 77.7052 32.5876 77.946 32.5876C78.1869 32.5876 78.4252 32.6365 78.6466 32.7313C78.868 32.8261 79.0679 32.9649 79.2341 33.1392C79.4004 33.3135 79.5295 33.5197 79.6137 33.7454C79.6979 33.971 79.7354 34.2114 79.724 34.452C79.724 35.432 78.928 34.428 77.944 34.428Z" fill="#F5F5F5"/>
<path d="M80.576 33.396C80.713 33.7312 80.7836 34.0899 80.784 34.452C80.7983 34.8337 80.7355 35.2143 80.5994 35.5711C80.4632 35.9279 80.2565 36.2536 79.9915 36.5287C79.7266 36.8038 79.4089 37.0226 79.0574 37.1721C78.7059 37.3215 78.3279 37.3986 77.946 37.3986C77.5641 37.3986 77.1861 37.3215 76.8346 37.1721C76.4831 37.0226 76.1654 36.8038 75.9005 36.5287C75.6355 36.2536 75.4288 35.9279 75.2926 35.5711C75.1565 35.2143 75.0937 34.8337 75.108 34.452C75.1071 34.0901 75.1764 33.7315 75.312 33.396C74.9706 33.8786 74.7685 34.4457 74.7277 35.0354C74.6869 35.6251 74.809 36.2147 75.0807 36.7397C75.3524 37.2647 75.7632 37.7049 76.2682 38.0121C76.7731 38.3194 77.3529 38.4819 77.944 38.4819C78.5351 38.4819 79.1149 38.3194 79.6199 38.0121C80.1248 37.7049 80.5356 37.2647 80.8073 36.7397C81.079 36.2147 81.2011 35.6251 81.1603 35.0354C81.1195 34.4457 80.9174 33.8786 80.576 33.396Z" fill="#F0F0F0"/>
<path d="M79.028 40.88C78.1763 40.8792 77.3435 41.1309 76.6348 41.6033C75.9261 42.0756 75.3733 42.7475 75.0462 43.5339C74.7192 44.3203 74.6326 45.186 74.7974 46.0216C74.9622 46.8572 75.371 47.6252 75.9722 48.2286C76.5733 48.8319 77.3398 49.2436 78.1748 49.4115C79.0097 49.5794 79.8758 49.496 80.6634 49.1719C81.451 48.8478 82.1249 48.2975 82.5999 47.5905C83.0749 46.8836 83.3296 46.0517 83.332 45.2C83.3341 44.6334 83.2243 44.0721 83.009 43.548C82.7936 43.024 82.4769 42.5476 82.0771 42.1463C81.6772 41.7449 81.202 41.4264 80.6788 41.2091C80.1555 40.9919 79.5946 40.88 79.028 40.88ZM79.028 44.08C77.716 44.08 76.656 45.42 76.656 44.108C76.656 43.4789 76.9059 42.8756 77.3507 42.4307C77.7956 41.9859 78.3989 41.736 79.028 41.736C79.6571 41.736 80.2604 41.9859 80.7053 42.4307C81.1501 42.8756 81.4 43.4789 81.4 44.108C81.4 45.428 80.34 44.088 79.028 44.088V44.08Z" fill="#FAFAFA"/>
<path d="M82.544 42.708C82.7765 43.2836 82.8641 43.9075 82.7992 44.5248C82.7343 45.1422 82.5188 45.7342 82.1716 46.2488C81.8245 46.7634 81.3563 47.185 80.8082 47.4764C80.26 47.7678 79.6488 47.9202 79.028 47.9202C78.4072 47.9202 77.7959 47.7678 77.2478 47.4764C76.6997 47.185 76.2315 46.7634 75.8844 46.2488C75.5372 45.7342 75.3217 45.1422 75.2568 44.5248C75.1919 43.9075 75.2795 43.2836 75.512 42.708C75.0571 43.3524 74.7879 44.1094 74.7341 44.8963C74.6802 45.6833 74.8436 46.4699 75.2064 47.1703C75.5693 47.8707 76.1177 48.4579 76.7916 48.8677C77.4656 49.2776 78.2392 49.4944 79.028 49.4944C79.8168 49.4944 80.5904 49.2776 81.2644 48.8677C81.9383 48.4579 82.4867 47.8707 82.8496 47.1703C83.2124 46.4699 83.3758 45.6833 83.3219 44.8963C83.2681 44.1094 82.9989 43.3524 82.544 42.708Z" fill="#F5F5F5"/>
<path d="M83.644 37.04C83.3861 36.7821 83.0575 36.6065 82.6998 36.5354C82.3421 36.4643 81.9714 36.5008 81.6345 36.6404C81.2975 36.78 81.0095 37.0163 80.8069 37.3196C80.6043 37.6228 80.4962 37.9793 80.4962 38.344C80.4962 38.7087 80.6043 39.0652 80.8069 39.3684C81.0095 39.6717 81.2975 39.908 81.6345 40.0476C81.9714 40.1872 82.3421 40.2237 82.6998 40.1526C83.0575 40.0815 83.3861 39.9059 83.644 39.648C83.8153 39.4768 83.9511 39.2735 84.0438 39.0497C84.1365 38.826 84.1842 38.5862 84.1842 38.344C84.1842 38.1018 84.1365 37.862 84.0438 37.6383C83.9511 37.4145 83.8153 37.2112 83.644 37.04ZM82.672 38C82.272 37.6 81.548 37.688 81.944 37.288C82.135 37.0976 82.3937 36.9908 82.6634 36.9912C82.9331 36.9916 83.1916 37.099 83.382 37.29C83.5724 37.481 83.6792 37.7397 83.6788 38.0094C83.6784 38.2791 83.5709 38.5376 83.38 38.728C82.984 39.136 83.068 38.4 82.672 38Z" fill="#F5F5F5"/>
<path d="M84.156 38.66C84.052 38.9047 83.8894 39.1202 83.6827 39.2874C83.4759 39.4547 83.2312 39.5685 82.9702 39.6191C82.7091 39.6697 82.4396 39.6553 82.1853 39.5774C81.9311 39.4994 81.6999 39.3602 81.512 39.172C81.3607 39.0211 81.2407 38.8419 81.1588 38.6446C81.0769 38.4472 81.0347 38.2357 81.0347 38.022C81.0347 37.8083 81.0769 37.5968 81.1588 37.3994C81.2407 37.2021 81.3607 37.0229 81.512 36.872C81.6595 36.7261 81.8332 36.6094 82.024 36.528C81.6914 36.5859 81.3811 36.7341 81.1269 36.9562C80.8727 37.1784 80.6844 37.4661 80.5825 37.788C80.4806 38.1098 80.469 38.4535 80.5489 38.7814C80.6289 39.1094 80.7974 39.4092 81.036 39.648C81.2748 39.8866 81.5746 40.0551 81.9026 40.1351C82.2306 40.215 82.5742 40.2034 82.8961 40.1015C83.2179 39.9996 83.5056 39.8113 83.7278 39.5571C83.9499 39.3029 84.0981 38.9926 84.156 38.66Z" fill="#F0F0F0"/>
<path d="M38.936 138.464C39.4632 137.95 39.8262 137.292 39.979 136.572C40.1318 135.852 40.0676 135.103 39.7946 134.419C39.5215 133.736 39.0518 133.149 38.4449 132.732C37.8381 132.316 37.1213 132.089 36.3854 132.08C35.6494 132.071 34.9273 132.28 34.3105 132.682C33.6937 133.083 33.2098 133.659 32.9202 134.336C32.6306 135.012 32.5482 135.76 32.6834 136.483C32.8187 137.207 33.1655 137.874 33.68 138.4C34.3689 139.105 35.3093 139.507 36.2948 139.519C37.2802 139.531 38.2301 139.152 38.936 138.464ZM36.996 136.488C37.796 135.688 37.648 134.224 38.44 135.032C38.6286 135.224 38.7775 135.451 38.8782 135.701C38.979 135.95 39.0296 136.217 39.0272 136.486C39.0248 136.755 38.9694 137.021 38.8642 137.269C38.759 137.517 38.606 137.741 38.414 137.93C38.222 138.119 37.9948 138.267 37.7452 138.368C37.4957 138.469 37.2287 138.52 36.9596 138.517C36.6905 138.515 36.4245 138.459 36.1768 138.354C35.9291 138.249 35.7046 138.096 35.516 137.904C34.724 137.096 36.188 137.28 36.996 136.488Z" fill="#F5F5F5"/>
<path d="M35.664 139.464C35.1753 139.248 34.7469 138.916 34.416 138.497C34.0852 138.078 33.862 137.584 33.766 137.059C33.67 136.533 33.704 135.992 33.8652 135.483C34.0263 134.974 34.3097 134.512 34.6905 134.137C35.0713 133.763 35.538 133.487 36.0498 133.335C36.5616 133.182 37.1031 133.157 37.6268 133.262C38.1505 133.367 38.6406 133.598 39.0542 133.936C39.4679 134.274 39.7926 134.708 40 135.2C39.9061 134.623 39.6775 134.077 39.3329 133.605C38.9882 133.133 38.5371 132.75 38.0163 132.485C37.4955 132.22 36.9196 132.082 36.3353 132.081C35.7511 132.081 35.175 132.218 34.6537 132.482C34.1325 132.746 33.6808 133.129 33.3354 133.6C32.9899 134.072 32.7605 134.618 32.6656 135.194C32.5708 135.771 32.6132 136.361 32.7894 136.918C32.9657 137.475 33.2708 137.983 33.68 138.4C34.2134 138.954 34.9075 139.326 35.664 139.464Z" fill="#F0F0F0"/>
<path d="M33.372 125.88C34.0737 125.192 34.5556 124.311 34.7568 123.35C34.958 122.388 34.8694 121.388 34.5022 120.476C34.1351 119.565 33.5059 118.783 32.6942 118.229C31.8825 117.675 30.9247 117.374 29.9421 117.365C28.9595 117.355 27.9961 117.637 27.1738 118.175C26.3516 118.713 25.7073 119.483 25.3226 120.387C24.9379 121.292 24.8299 122.29 25.0125 123.255C25.195 124.221 25.6598 125.111 26.348 125.812C27.2706 126.752 28.5287 127.288 29.8459 127.3C31.1631 127.313 32.4314 126.802 33.372 125.88ZM30.8 123.24C31.88 122.18 31.672 120.216 32.732 121.296C33.2407 121.817 33.5214 122.52 33.5124 123.248C33.5034 123.976 33.2054 124.671 32.684 125.18C32.1626 125.689 31.4604 125.969 30.7321 125.96C30.0037 125.951 29.3087 125.653 28.8 125.132C27.744 124.052 29.704 124.3 30.8 123.24Z" fill="#FAFAFA"/>
<path d="M29 127.2C28.4081 126.942 27.8805 126.556 27.4553 126.07C27.03 125.585 26.7175 125.011 26.5402 124.39C26.363 123.769 26.3253 123.116 26.4299 122.479C26.5346 121.842 26.7789 121.236 27.1454 120.704C27.5119 120.173 27.9916 119.729 28.5499 119.405C29.1082 119.08 29.7314 118.883 30.3747 118.828C31.0181 118.773 31.6656 118.861 32.271 119.086C32.8763 119.311 33.4244 119.666 33.876 120.128C34.2707 120.533 34.5844 121.009 34.8 121.532C34.6568 120.632 34.2689 119.789 33.6788 119.095C33.0888 118.401 32.3192 117.883 31.4543 117.597C30.5894 117.31 29.6624 117.268 28.7748 117.473C27.8872 117.678 27.0731 118.123 26.4215 118.76C25.77 119.397 25.306 120.2 25.0805 121.083C24.8549 121.966 24.8764 122.893 25.1426 123.765C25.4087 124.636 25.9094 125.417 26.5897 126.023C27.27 126.629 28.1038 127.036 29 127.2Z" fill="#F5F5F5"/>
<path d="M175.116 72.4C175.818 71.7121 176.3 70.8315 176.501 69.8696C176.702 68.9078 176.613 67.9079 176.246 66.9964C175.879 66.0849 175.25 65.3027 174.438 64.7488C173.626 64.195 172.669 63.8943 171.686 63.8847C170.703 63.8752 169.74 64.1573 168.918 64.6954C168.096 65.2334 167.451 66.0033 167.067 66.9075C166.682 67.8117 166.574 68.8097 166.756 69.7753C166.939 70.7408 167.404 71.6306 168.092 72.332C169.015 73.2712 170.273 73.8059 171.59 73.8186C172.907 73.8314 174.175 73.3212 175.116 72.4ZM172.524 69.76C173.604 68.7 173.396 66.736 174.452 67.816C174.929 68.3402 175.184 69.0289 175.164 69.7373C175.144 70.4458 174.851 71.1189 174.345 71.6154C173.839 72.1118 173.16 72.393 172.452 72.3998C171.743 72.4067 171.059 72.1386 170.544 71.652C169.484 70.556 171.444 70.8 172.524 69.744V69.76Z" fill="#FAFAFA"/>
<path d="M170.744 73.72C170.089 73.4329 169.515 72.9897 169.071 72.4291C168.628 71.8686 168.328 71.2078 168.199 70.5046C168.07 69.8015 168.116 69.0775 168.332 68.396C168.548 67.7145 168.927 67.0963 169.437 66.5956C169.948 66.0949 170.573 65.7269 171.258 65.5239C171.944 65.321 172.669 65.2892 173.369 65.4313C174.07 65.5735 174.725 65.8853 175.277 66.3394C175.829 66.7935 176.261 67.376 176.536 68.036C176.39 67.1371 176 66.2957 175.408 65.6036C174.816 64.9114 174.046 64.3953 173.181 64.1115C172.315 63.8277 171.389 63.7872 170.502 63.9943C169.615 64.2015 168.802 64.6484 168.152 65.2862C167.503 65.924 167.04 66.7282 166.817 67.6109C166.593 68.4936 166.616 69.4208 166.883 70.2913C167.151 71.1617 167.652 71.9419 168.333 72.5466C169.014 73.1513 169.848 73.5572 170.744 73.72Z" fill="#F5F5F5"/>
<path d="M120.8 49.224C121.786 48.2564 122.463 47.0183 122.745 45.666C123.027 44.3138 122.902 42.9083 122.385 41.6273C121.868 40.3462 120.983 39.2471 119.842 38.469C118.701 37.6909 117.354 37.2687 115.973 37.2559C114.592 37.243 113.238 37.64 112.082 38.3967C110.926 39.1534 110.021 40.2358 109.481 41.5071C108.94 42.7783 108.789 44.1812 109.046 45.5384C109.303 46.8957 109.956 48.1462 110.924 49.132C112.221 50.4538 113.991 51.206 115.843 51.2233C117.695 51.2405 119.478 50.5214 120.8 49.224ZM117.16 45.512C118.676 44.024 118.38 41.264 119.872 42.78C120.561 43.5139 120.936 44.4885 120.916 45.4952C120.895 46.502 120.482 47.4607 119.763 48.1661C119.045 48.8716 118.079 49.2676 117.072 49.2695C116.065 49.2713 115.097 48.8788 114.376 48.176C112.868 46.656 115.624 47.004 117.144 45.512H117.16Z" fill="#FAFAFA"/>
<path d="M114.64 51.108C113.717 50.7057 112.907 50.0831 112.281 49.2948C111.655 48.5066 111.232 47.5767 111.049 46.5869C110.867 45.5971 110.929 44.5775 111.232 43.6176C111.535 42.6576 112.069 41.7867 112.787 41.0811C113.505 40.3756 114.385 39.8569 115.35 39.5707C116.315 39.2845 117.335 39.2395 118.322 39.4396C119.308 39.6397 120.231 40.0788 121.008 40.7184C121.785 41.3579 122.394 42.1785 122.78 43.108C122.573 41.845 122.023 40.6632 121.191 39.6914C120.358 38.7197 119.274 37.9955 118.057 37.5979C116.841 37.2004 115.539 37.1447 114.293 37.4369C113.047 37.7292 111.905 38.3582 110.992 39.2553C110.08 40.1523 109.431 41.283 109.117 42.5237C108.803 43.7644 108.836 45.0674 109.213 46.2906C109.589 47.5138 110.294 48.61 111.252 49.4596C112.209 50.3091 113.381 50.8794 114.64 51.108Z" fill="#F5F5F5"/>
<path d="M171.6 79.964C172.021 79.9679 172.433 79.847 172.786 79.6164C173.138 79.3859 173.413 79.0561 173.578 78.6688C173.743 78.2815 173.789 77.8541 173.711 77.4405C173.633 77.027 173.433 76.646 173.139 76.3456C172.844 76.0452 172.467 75.839 172.055 75.753C171.643 75.667 171.214 75.7051 170.824 75.8625C170.434 76.0199 170.099 76.2895 169.862 76.6372C169.625 76.9849 169.496 77.3951 169.492 77.816C169.489 78.0956 169.541 78.3731 169.645 78.6325C169.75 78.8919 169.904 79.1282 170.1 79.3278C170.296 79.5273 170.529 79.6863 170.787 79.7954C171.044 79.9046 171.32 79.9619 171.6 79.964ZM171.6 78.364C172.248 78.364 172.78 77.712 172.772 78.364C172.769 78.6748 172.643 78.9719 172.422 79.1898C172.2 79.4077 171.901 79.5286 171.59 79.526C171.279 79.5233 170.982 79.3973 170.764 79.1757C170.546 78.954 170.425 78.6548 170.428 78.344C170.428 77.708 170.948 78.376 171.6 78.4V78.364Z" fill="#F5F5F5"/>
<path d="M169.852 79.048C169.765 78.8234 169.72 78.5848 169.72 78.344C169.725 77.8465 169.927 77.3712 170.282 77.0227C170.637 76.6743 171.116 76.4812 171.614 76.486C172.112 76.4908 172.587 76.693 172.935 77.0482C173.284 77.4034 173.477 77.8825 173.472 78.38C173.468 78.6202 173.419 78.8576 173.328 79.08C173.556 78.7635 173.693 78.3904 173.723 78.0016C173.753 77.6127 173.676 77.223 173.5 76.875C173.324 76.527 173.055 76.2342 172.724 76.0284C172.392 75.8227 172.011 75.7119 171.621 75.7083C171.231 75.7048 170.847 75.8084 170.512 76.008C170.177 76.2077 169.903 76.4955 169.721 76.8402C169.538 77.1849 169.454 77.5731 169.477 77.9625C169.5 78.3519 169.63 78.7274 169.852 79.048Z" fill="#F0F0F0"/>
<path d="M78.776 139C80.216 140.44 86.652 141.12 86.652 141.12C86.652 141.12 80.216 141.8 78.776 143.24C77.336 144.68 76.652 151.12 76.652 151.12C76.652 151.12 75.976 144.684 74.532 143.24C73.088 141.796 66.652 141.12 66.652 141.12C66.652 141.12 73.092 140.44 74.532 139C75.972 137.56 76.652 131.12 76.652 131.12C76.652 131.12 77.332 137.556 78.776 139Z" fill="#F5F5F5"/>
<path d="M146.4 46.82C145.68 47.54 145.34 50.76 145.34 50.76C145.34 50.76 145 47.54 144.28 46.82C143.56 46.1 140.34 45.76 140.34 45.76C140.34 45.76 143.54 45.42 144.28 44.7C145.02 43.98 145.34 40.76 145.34 40.76C145.34 40.76 145.68 43.96 146.4 44.7C147.12 45.44 150.34 45.76 150.34 45.76C150.34 45.76 147.108 46.1 146.4 46.82Z" fill="#F0F0F0"/>
<path d="M100 169.484C142.833 169.484 177.556 167.457 177.556 164.956C177.556 162.455 142.833 160.428 100 160.428C57.167 160.428 22.444 162.455 22.444 164.956C22.444 167.457 57.167 169.484 100 169.484Z" fill="#F5F5F5"/>
<path d="M61.456 139.679L47.9703 141.097L48.2713 143.961L61.7571 142.544L61.456 139.679Z" fill="#407BFF"/>
<path d="M62.0862 141.637L47.7651 143.142L48.7092 152.125L63.0303 150.62L62.0862 141.637Z" fill="#407BFF"/>
<path opacity="0.5" d="M62.0862 141.637L47.7651 143.142L48.7092 152.125L63.0303 150.62L62.0862 141.637Z" fill="white"/>
<g opacity="0.4">
<path d="M54.128 144.444C54.0806 144.449 54.0347 144.463 53.9929 144.486C53.9511 144.509 53.9142 144.54 53.8844 144.577C53.8547 144.614 53.8326 144.657 53.8195 144.703C53.8063 144.749 53.8024 144.797 53.808 144.844L54.508 151.516L55.224 151.44L54.524 144.768C54.5139 144.673 54.4667 144.585 54.3925 144.525C54.3184 144.464 54.2234 144.435 54.128 144.444Z" fill="white"/>
<path d="M56.544 144.192C56.4966 144.197 56.4507 144.211 56.4089 144.234C56.3671 144.257 56.3302 144.288 56.3004 144.325C56.2707 144.362 56.2486 144.405 56.2355 144.451C56.2223 144.497 56.2184 144.545 56.224 144.592L56.924 151.264L57.64 151.188L56.94 144.516C56.936 144.468 56.9225 144.422 56.9003 144.38C56.8781 144.338 56.8476 144.3 56.8107 144.27C56.7737 144.24 56.7311 144.217 56.6853 144.204C56.6395 144.191 56.5914 144.186 56.544 144.192Z" fill="white"/>
<path d="M51.712 144.7C51.6644 144.704 51.6182 144.718 51.5761 144.741C51.534 144.764 51.497 144.795 51.4671 144.832C51.4372 144.869 51.4152 144.912 51.4023 144.958C51.3894 145.004 51.3859 145.053 51.392 145.1L52.092 151.772L52.808 151.696L52.108 145.024C52.1035 144.977 52.0897 144.931 52.0673 144.889C52.0449 144.847 52.0144 144.81 51.9776 144.779C51.9408 144.749 51.8983 144.727 51.8527 144.713C51.8072 144.699 51.7593 144.695 51.712 144.7Z" fill="white"/>
<path d="M58.96 143.936C58.8647 143.947 58.7777 143.995 58.7177 144.07C58.6578 144.145 58.6299 144.241 58.64 144.336L59.34 151.008L60.056 150.932L59.356 144.26C59.3515 144.213 59.3377 144.167 59.3153 144.125C59.2929 144.083 59.2624 144.046 59.2256 144.015C59.1888 143.985 59.1463 143.963 59.1007 143.949C59.0552 143.935 59.0073 143.931 58.96 143.936Z" fill="white"/>
<path d="M61.376 143.684C61.3286 143.689 61.2827 143.703 61.2409 143.726C61.1991 143.749 61.1622 143.78 61.1324 143.817C61.1027 143.854 61.0806 143.897 61.0675 143.943C61.0543 143.989 61.0504 144.037 61.056 144.084L61.76 150.756L62.476 150.68L61.772 144C61.767 143.953 61.7528 143.908 61.7302 143.866C61.7075 143.825 61.6769 143.789 61.64 143.759C61.6032 143.73 61.5609 143.708 61.5156 143.695C61.4702 143.682 61.4228 143.678 61.376 143.684Z" fill="white"/>
<path d="M50.4 151.944L49.696 145.272C49.691 145.225 49.6767 145.179 49.6538 145.137C49.631 145.095 49.6001 145.058 49.5629 145.028C49.5256 144.999 49.4829 144.977 49.4371 144.963C49.3913 144.95 49.3433 144.946 49.296 144.952C49.2 144.962 49.1119 145.01 49.0512 145.085C48.9904 145.16 48.9619 145.256 48.972 145.352L49.676 152.024L50.4 151.944Z" fill="white"/>
</g>
<path d="M29.892 65.884L30.376 70.492L45.116 139.6C45.2843 140.386 45.7373 141.082 46.3877 141.555C47.0382 142.027 47.8403 142.243 48.64 142.16L61.04 140.856C61.8399 140.773 62.5804 140.396 63.1184 139.798C63.6563 139.2 63.9533 138.424 63.952 137.62L64 66.96L63.512 62.348L29.892 65.884Z" fill="#407BFF"/>
<path opacity="0.8" d="M29.892 65.884L30.376 70.492L45.116 139.6C45.2843 140.386 45.7373 141.082 46.3877 141.555C47.0382 142.027 47.8403 142.243 48.64 142.16L61.04 140.856C61.8399 140.773 62.5804 140.396 63.1184 139.798C63.6563 139.2 63.9533 138.424 63.952 137.62L64 66.96L63.512 62.348L29.892 65.884Z" fill="white"/>
<path opacity="0.2" d="M63.4992 62.3492L29.8924 65.8814L30.2862 69.6288L63.8931 66.0965L63.4992 62.3492Z" fill="white"/>
<path opacity="0.6" d="M34.22 69.2L34.312 70.048L47.72 138.524C48.036 140.124 49.32 141.252 50.696 141.108L60.988 140.028C62.364 139.88 63.388 138.524 63.364 136.88L62.236 67.092L62.148 66.244L34.22 69.2Z" fill="white"/>
<g opacity="0.5">
<path d="M50.68 66.488C50.7274 66.483 50.7733 66.4687 50.8151 66.4458C50.8569 66.423 50.8938 66.3921 50.9236 66.3548C50.9533 66.3176 50.9754 66.2749 50.9885 66.2291C51.0017 66.1833 51.0056 66.1353 51 66.088L50.748 63.688L50.032 63.76L50.284 66.16C50.2931 66.256 50.3399 66.3444 50.4142 66.4059C50.4884 66.4674 50.584 66.4969 50.68 66.488Z" fill="white"/>
<path d="M53.096 66.232C53.1436 66.2276 53.1898 66.2136 53.2319 66.1909C53.274 66.1682 53.311 66.1373 53.3409 66.0999C53.3708 66.0626 53.3928 66.0196 53.4057 65.9736C53.4186 65.9276 53.4221 65.8794 53.416 65.832L53.164 63.432L52.448 63.508L52.7 65.908C52.7101 66.0032 52.7573 66.0907 52.8315 66.1513C52.9056 66.212 53.0006 66.241 53.096 66.232Z" fill="white"/>
<path d="M48.264 66.74C48.3114 66.735 48.3573 66.7207 48.3991 66.6978C48.4409 66.675 48.4778 66.6441 48.5076 66.6069C48.5373 66.5696 48.5594 66.5269 48.5725 66.4811C48.5857 66.4353 48.5896 66.3873 48.584 66.34L48.332 63.94L47.616 64.016L47.868 66.416C47.8781 66.5112 47.9253 66.5987 47.9995 66.6593C48.0736 66.72 48.1686 66.749 48.264 66.74Z" fill="white"/>
<path d="M55.512 66C55.608 65.9899 55.6961 65.9421 55.7568 65.8671C55.8176 65.7921 55.8461 65.696 55.836 65.6L55.58 63.2L54.864 63.272L55.12 65.672C55.124 65.7193 55.1374 65.7654 55.1593 65.8076C55.1812 65.8497 55.2112 65.8871 55.2477 65.9176C55.2841 65.9481 55.3262 65.9711 55.3716 65.9852C55.417 65.9994 55.4647 66.0044 55.512 66Z" fill="white"/>
<path d="M45.848 66.996C45.9433 66.9849 46.0303 66.9367 46.0903 66.8618C46.1502 66.7869 46.1781 66.6914 46.168 66.596L45.916 64.196L45.2 64.268L45.452 66.668C45.456 66.7157 45.4695 66.7621 45.4916 66.8046C45.5138 66.847 45.5442 66.8846 45.5811 66.9152C45.618 66.9457 45.6606 66.9686 45.7064 66.9825C45.7522 66.9964 45.8004 67.001 45.848 66.996Z" fill="white"/>
<path d="M60.348 65.472C60.4433 65.4609 60.5303 65.4127 60.5903 65.3378C60.6502 65.2629 60.6781 65.1674 60.668 65.072L60.416 62.672L59.7 62.744L59.952 65.144C59.956 65.1917 59.9695 65.2382 59.9916 65.2806C60.0138 65.323 60.0442 65.3606 60.0811 65.3912C60.118 65.4217 60.1606 65.4446 60.2064 65.4585C60.2522 65.4724 60.3004 65.477 60.348 65.472Z" fill="white"/>
<path d="M57.932 65.724C57.9794 65.719 58.0253 65.7047 58.0671 65.6818C58.1089 65.659 58.1458 65.6281 58.1756 65.5908C58.2053 65.5536 58.2274 65.5109 58.2405 65.4651C58.2537 65.4193 58.2576 65.3713 58.252 65.324L58 62.924L57.284 63L57.536 65.4C57.5405 65.4474 57.5543 65.4934 57.5767 65.5353C57.5991 65.5773 57.6296 65.6145 57.6664 65.6446C57.7032 65.6747 57.7457 65.6973 57.7913 65.7109C57.8368 65.7245 57.8847 65.729 57.932 65.724Z" fill="white"/>
<path d="M43.432 67.248C43.4794 67.243 43.5253 67.2287 43.5671 67.2058C43.6089 67.183 43.6458 67.1521 43.6756 67.1149C43.7053 67.0776 43.7274 67.0349 43.7405 66.9891C43.7537 66.9433 43.7576 66.8953 43.752 66.848L43.5 64.448L42.784 64.524L43.036 66.924C43.0405 66.9714 43.0543 67.0174 43.0767 67.0594C43.0991 67.1013 43.1296 67.1385 43.1664 67.1686C43.2032 67.1987 43.2457 67.2213 43.2913 67.2349C43.3368 67.2485 43.3847 67.253 43.432 67.248Z" fill="white"/>
<path d="M31.348 68.52C31.4433 68.5089 31.5303 68.4607 31.5903 68.3858C31.6502 68.3109 31.6781 68.2154 31.668 68.12L31.416 65.72L30.7 65.792L30.952 68.192C30.956 68.2397 30.9695 68.2862 30.9916 68.3286C31.0138 68.371 31.0442 68.4086 31.0811 68.4392C31.118 68.4697 31.1606 68.4926 31.2064 68.5065C31.2522 68.5204 31.3004 68.525 31.348 68.52Z" fill="white"/>
<path d="M33.764 68.264C33.8114 68.259 33.8573 68.2447 33.8991 68.2218C33.9409 68.199 33.9778 68.1681 34.0076 68.1308C34.0373 68.0936 34.0594 68.0509 34.0725 68.0051C34.0857 67.9593 34.0896 67.9113 34.084 67.864L33.832 65.464L33.116 65.54L33.368 67.94C33.3725 67.9874 33.3863 68.0334 33.4087 68.0753C33.4311 68.1173 33.4616 68.1545 33.4984 68.1846C33.5352 68.2147 33.5777 68.2373 33.6233 68.2509C33.6688 68.2645 33.7167 68.269 33.764 68.264Z" fill="white"/>
<path d="M41.012 67.504C41.108 67.4939 41.1961 67.4461 41.2568 67.3711C41.3176 67.2961 41.3461 67.2 41.336 67.104L41.08 64.704L40.364 64.776L40.62 67.176C40.624 67.2233 40.6374 67.2694 40.6593 67.3116C40.6812 67.3537 40.7112 67.3911 40.7477 67.4216C40.7841 67.4521 40.8262 67.4751 40.8716 67.4892C40.917 67.5034 40.9647 67.5084 41.012 67.504Z" fill="white"/>
<path d="M62.116 62.496L62.368 64.896C62.373 64.943 62.3872 64.9886 62.4098 65.0301C62.4324 65.0716 62.463 65.1083 62.4997 65.138C62.5365 65.1677 62.5788 65.1899 62.6241 65.2033C62.6695 65.2167 62.717 65.221 62.764 65.216C62.811 65.211 62.8566 65.1968 62.8981 65.1742C62.9396 65.1516 62.9763 65.121 63.006 65.0843C63.0357 65.0475 63.0579 65.0052 63.0713 64.9599C63.0847 64.9145 63.089 64.867 63.084 64.82L62.832 62.42L62.116 62.496Z" fill="white"/>
<path d="M36.18 68C36.2274 67.995 36.2733 67.9807 36.3151 67.9578C36.3569 67.935 36.3938 67.9041 36.4236 67.8668C36.4533 67.8296 36.4754 67.7869 36.4885 67.7411C36.5017 67.6953 36.5056 67.6473 36.5 67.6L36.248 65.2L35.532 65.272L35.784 67.672C35.7931 67.768 35.8399 67.8564 35.9142 67.9179C35.9884 67.9794 36.084 68.0089 36.18 68Z" fill="white"/>
<path d="M38.596 67.756C38.6436 67.7516 38.6898 67.7376 38.7319 67.7149C38.774 67.6922 38.811 67.6613 38.8409 67.6239C38.8708 67.5866 38.8928 67.5436 38.9057 67.4976C38.9186 67.4516 38.9221 67.4034 38.916 67.356L38.664 64.956L37.948 65.032L38.2 67.432C38.2101 67.5272 38.2573 67.6147 38.3315 67.6753C38.4056 67.736 38.5006 67.7649 38.596 67.756Z" fill="white"/>
</g>
<path d="M63.948 127.332V104.372C58.1 97.172 40.192 92.012 33.452 84.98L39.04 111.12C44.724 116.964 59.976 121.2 63.948 127.332Z" fill="#407BFF"/>
<path d="M51.1 108.36C51.1 108.36 51.876 108.296 52.272 110.204C52.668 112.112 52.672 113.516 53.276 113.536C53.88 113.556 55.12 111.536 54.968 109.752C54.816 107.968 54.736 106.328 54.968 105.22C55.248 103.932 56.096 101.76 54.476 100.556C53.06 99.5 51.564 101.064 50.336 101.192H50.252C49.024 101.32 47.236 100.104 46.068 101.432C44.736 102.944 46.016 104.896 46.56 106.096C47.028 107.132 47.296 108.752 47.512 110.524C47.728 112.296 49.384 114.016 49.956 113.876C50.528 113.736 50.252 112.36 50.244 110.408C50.236 108.456 51.004 108.36 51.004 108.36H51.1Z" fill="white"/>
<path d="M61.748 104.052C61.488 103.204 59.18 103.108 55.94 103.652C55.888 103.936 55.828 104.208 55.764 104.452C56.996 104.368 57.812 104.512 57.936 104.908C58.196 105.752 55.248 107.42 51.348 108.632C47.448 109.844 44.072 110.14 43.808 109.296C43.652 108.788 44.656 107.98 46.332 107.156C46.268 106.928 46.196 106.716 46.12 106.52C42.34 108.08 39.864 109.76 40.168 110.732C40.568 112.024 45.724 111.568 51.684 109.716C57.644 107.864 62.152 105.34 61.748 104.052Z" fill="#407BFF"/>
<path opacity="0.6" d="M61.748 104.052C61.488 103.204 59.18 103.108 55.94 103.652C55.888 103.936 55.828 104.208 55.764 104.452C56.996 104.368 57.812 104.512 57.936 104.908C58.196 105.752 55.248 107.42 51.348 108.632C47.448 109.844 44.072 110.14 43.808 109.296C43.652 108.788 44.656 107.98 46.332 107.156C46.268 106.928 46.196 106.716 46.12 106.52C42.34 108.08 39.864 109.76 40.168 110.732C40.568 112.024 45.724 111.568 51.684 109.716C57.644 107.864 62.152 105.34 61.748 104.052Z" fill="white"/>
<path d="M145.824 53.476L144.908 50.8C145.738 49.2067 145.965 47.3678 145.549 45.6204C145.132 43.873 144.1 42.3342 142.641 41.2862C141.182 40.2381 139.395 39.751 137.606 39.9142C135.817 40.0773 134.147 40.8798 132.901 42.1745C131.656 43.4691 130.919 45.1692 130.826 46.9631C130.733 48.757 131.289 50.5244 132.393 51.9414C133.497 53.3583 135.075 54.3298 136.837 54.6778C138.6 55.0258 140.428 54.7269 141.988 53.836L144.6 54.724C144.773 54.7853 144.96 54.7958 145.139 54.7544C145.318 54.713 145.481 54.6214 145.61 54.4903C145.738 54.3591 145.827 54.194 145.865 54.0143C145.903 53.8347 145.889 53.6479 145.824 53.476Z" fill="#407BFF"/>
<path opacity="0.6" d="M145.824 53.476L144.908 50.8C145.738 49.2067 145.965 47.3678 145.549 45.6204C145.132 43.873 144.1 42.3342 142.641 41.2862C141.182 40.2381 139.395 39.751 137.606 39.9142C135.817 40.0773 134.147 40.8798 132.901 42.1745C131.656 43.4691 130.919 45.1692 130.826 46.9631C130.733 48.757 131.289 50.5244 132.393 51.9414C133.497 53.3583 135.075 54.3298 136.837 54.6778C138.6 55.0258 140.428 54.7269 141.988 53.836L144.6 54.724C144.773 54.7853 144.96 54.7958 145.139 54.7544C145.318 54.713 145.481 54.6214 145.61 54.4903C145.738 54.3591 145.827 54.194 145.865 54.0143C145.903 53.8347 145.889 53.6479 145.824 53.476Z" fill="white"/>
<path d="M138.4 48.8C138.4 48.8 138.964 48.8 139.104 50.216C139.244 51.632 139.152 52.616 139.576 52.692C140 52.768 141.056 51.388 141.08 50.096C141.051 48.9972 141.169 47.8994 141.432 46.832C141.732 45.928 142.508 44.432 141.432 43.436C140.492 42.568 139.296 43.58 138.4 43.58H138.34C137.444 43.58 136.248 42.568 135.308 43.436C134.232 44.424 135.008 45.928 135.308 46.832C135.571 47.8994 135.689 48.9972 135.66 50.096C135.684 51.388 136.744 52.752 137.164 52.692C137.584 52.632 137.496 51.624 137.636 50.216C137.776 48.808 138.34 48.8 138.34 48.8H138.4Z" fill="white"/>
<g opacity="0.9">
<path d="M141.232 50.092L137.552 46.412L138.648 45.316L141.232 47.9L145.92 43.212L147.012 44.308L141.232 50.092Z" fill="#407BFF"/>
</g>
<path d="M137.536 71.568C133.947 71.179 130.386 70.5617 126.876 69.72C117.273 67.4481 108.165 63.4425 100 57.9C91.8352 63.4425 82.7272 67.4481 73.124 69.72C69.6135 70.5617 66.053 71.179 62.464 71.568C62.464 71.736 62.464 71.896 62.464 72.064C62.464 105.068 77.264 128.092 100.016 146.1C122.76 128.1 137.568 105.068 137.568 72.064C137.552 71.896 137.536 71.736 137.536 71.568Z" fill="#407BFF"/>
<path d="M132.856 75.64L132.788 77.012C131.588 101.94 121.5 121.72 101.008 139.256L100 140.12L98.992 139.256C78.496 121.716 68.4 101.936 67.2 77.012L67.132 75.644L68.484 75.412C70.416 75.08 72.34 74.684 74.2 74.236C83.022 72.149 91.4592 68.6824 99.2 63.964L100 63.468L100.8 63.964C108.533 68.68 116.962 72.1466 125.776 74.236C127.648 74.688 129.572 75.08 131.492 75.412L132.856 75.64Z" fill="#407BFF"/>
<path opacity="0.5" d="M126.876 69.72C117.273 67.4481 108.165 63.4425 100 57.9V63.468L100.8 63.964C108.533 68.68 116.962 72.1466 125.776 74.236C127.648 74.688 129.572 75.08 131.492 75.412L132.844 75.64L132.78 77.012C131.58 101.94 121.488 121.72 100.996 139.256L100 140.12V146.1C122.744 128.1 137.552 105.068 137.552 72.064C137.552 71.896 137.552 71.736 137.552 71.568C133.958 71.1797 130.392 70.5624 126.876 69.72Z" fill="white"/>
<path opacity="0.3" d="M132.856 75.64L132.788 77.012C131.588 101.94 121.5 121.72 101.008 139.256L100 140.12L98.992 139.256C78.496 121.716 68.4 101.936 67.2 77.012L67.132 75.644L68.484 75.412C70.416 75.08 72.34 74.684 74.2 74.236C83.022 72.149 91.4592 68.6824 99.2 63.964L100 63.468L100.8 63.964C108.533 68.68 116.962 72.1466 125.776 74.236C127.648 74.688 129.572 75.08 131.492 75.412L132.856 75.64Z" fill="white"/>
<path d="M99.868 64.724C99.5372 64.7239 99.2096 64.7891 98.904 64.916C98.908 64.8521 98.908 64.7879 98.904 64.724C98.9036 64.1652 98.7182 63.6224 98.3766 63.1802C98.035 62.738 97.5565 62.4215 97.016 62.28C97.2008 61.9261 97.2993 61.5335 97.3034 61.1342C97.3075 60.735 97.2171 60.3404 97.0396 59.9827C96.8622 59.6251 96.6026 59.3145 96.2822 59.0762C95.9618 58.838 95.5896 58.6789 95.196 58.612C95.0083 58.2746 94.7536 57.9792 94.4476 57.7439C94.1416 57.5085 93.7907 57.3382 93.4164 57.2434C93.0422 57.1487 92.6525 57.1314 92.2714 57.1927C91.8902 57.254 91.5256 57.3926 91.2 57.6C90.4967 56.983 89.6612 56.5354 88.7579 56.2918C87.8545 56.0481 86.9073 56.0148 85.9891 56.1945C85.0709 56.3741 84.2061 56.7619 83.4611 57.328C82.7162 57.8941 82.111 58.6234 81.692 59.46C81.476 59.4068 81.2544 59.38 81.032 59.38C80.5483 59.3834 80.0736 59.511 79.6533 59.7505C79.2331 59.99 78.8814 60.3335 78.632 60.748C78.2064 60.3123 77.6381 60.0445 77.0311 59.9939C76.4241 59.9433 75.8193 60.1131 75.3274 60.4723C74.8355 60.8315 74.4896 61.356 74.353 61.9495C74.2165 62.5431 74.2985 63.166 74.584 63.704C74.2163 63.7521 73.8617 63.8722 73.5404 64.0576C73.2192 64.2429 72.9377 64.4897 72.712 64.784C72.4159 64.3477 71.9912 64.0146 71.4969 63.8309C71.0026 63.6473 70.4634 63.6223 69.9543 63.7594C69.4451 63.8965 68.9914 64.1889 68.6561 64.5959C68.3209 65.0029 68.1209 65.5042 68.0839 66.0302C68.0469 66.5562 68.1748 67.0806 68.4497 67.5306C68.7247 67.9805 69.133 68.3335 69.618 68.5405C70.1029 68.7475 70.6403 68.7983 71.1554 68.6856C71.6706 68.573 72.1377 68.3025 72.492 67.912C72.7171 68.3149 73.0375 68.6565 73.4252 68.9069C73.8129 69.1573 74.256 69.3089 74.7159 69.3484C75.1757 69.3879 75.6382 69.314 76.0629 69.1334C76.4876 68.9527 76.8615 68.6707 77.152 68.312C77.4223 68.6476 77.7658 68.917 78.1563 69.0994C78.5467 69.2817 78.9737 69.3724 79.4046 69.3642C79.8355 69.3561 80.2588 69.2495 80.6421 69.0526C81.0254 68.8556 81.3585 68.5736 81.616 68.228C82.4403 68.9402 83.4879 69.3417 84.5771 69.3629C85.6663 69.3841 86.7286 69.0236 87.58 68.344C87.788 68.344 87.98 68.304 88.196 68.272C88.9269 68.8857 89.8286 69.2604 90.7792 69.3456C91.7298 69.4307 92.6837 69.2221 93.512 68.748C93.7529 69.0925 94.076 69.3715 94.4519 69.5597C94.8278 69.7479 95.2447 69.8394 95.6648 69.8258C96.085 69.8123 96.4952 69.6943 96.8582 69.4823C97.2212 69.2704 97.5257 68.9712 97.744 68.612C97.9743 68.989 98.2993 69.2992 98.6867 69.5118C99.074 69.7243 99.5102 69.8318 99.952 69.8236C100.394 69.8153 100.826 69.6916 101.205 69.4648C101.584 69.2379 101.897 68.9158 102.113 68.5304C102.329 68.145 102.441 67.7098 102.437 67.268C102.432 66.8262 102.313 66.3932 102.089 66.012C101.866 65.6308 101.547 65.3146 101.163 65.095C100.78 64.8754 100.346 64.7599 99.904 64.76L99.868 64.724Z" fill="#407BFF"/>
<path opacity="0.9" d="M99.868 64.724C99.5372 64.7239 99.2096 64.7891 98.904 64.916C98.908 64.8521 98.908 64.7879 98.904 64.724C98.9036 64.1652 98.7182 63.6224 98.3766 63.1802C98.035 62.738 97.5565 62.4215 97.016 62.28C97.2008 61.9261 97.2993 61.5335 97.3034 61.1342C97.3075 60.735 97.2171 60.3404 97.0396 59.9827C96.8622 59.6251 96.6026 59.3145 96.2822 59.0762C95.9618 58.838 95.5896 58.6789 95.196 58.612C95.0083 58.2746 94.7536 57.9792 94.4476 57.7439C94.1416 57.5085 93.7907 57.3382 93.4164 57.2434C93.0422 57.1487 92.6525 57.1314 92.2714 57.1927C91.8902 57.254 91.5256 57.3926 91.2 57.6C90.4967 56.983 89.6612 56.5354 88.7579 56.2918C87.8545 56.0481 86.9073 56.0148 85.9891 56.1945C85.0709 56.3741 84.2061 56.7619 83.4611 57.328C82.7162 57.8941 82.111 58.6234 81.692 59.46C81.476 59.4068 81.2544 59.38 81.032 59.38C80.5483 59.3834 80.0736 59.511 79.6533 59.7505C79.2331 59.99 78.8814 60.3335 78.632 60.748C78.2064 60.3123 77.6381 60.0445 77.0311 59.9939C76.4241 59.9433 75.8193 60.1131 75.3274 60.4723C74.8355 60.8315 74.4896 61.356 74.353 61.9495C74.2165 62.5431 74.2985 63.166 74.584 63.704C74.2163 63.7521 73.8617 63.8722 73.5404 64.0576C73.2192 64.2429 72.9377 64.4897 72.712 64.784C72.4159 64.3477 71.9912 64.0146 71.4969 63.8309C71.0026 63.6473 70.4634 63.6223 69.9543 63.7594C69.4451 63.8965 68.9914 64.1889 68.6561 64.5959C68.3209 65.0029 68.1209 65.5042 68.0839 66.0302C68.0469 66.5562 68.1748 67.0806 68.4497 67.5306C68.7247 67.9805 69.133 68.3335 69.618 68.5405C70.1029 68.7475 70.6403 68.7983 71.1554 68.6856C71.6706 68.573 72.1377 68.3025 72.492 67.912C72.7171 68.3149 73.0375 68.6565 73.4252 68.9069C73.8129 69.1573 74.256 69.3089 74.7159 69.3484C75.1757 69.3879 75.6382 69.314 76.0629 69.1334C76.4876 68.9527 76.8615 68.6707 77.152 68.312C77.4223 68.6476 77.7658 68.917 78.1563 69.0994C78.5467 69.2817 78.9737 69.3724 79.4046 69.3642C79.8355 69.3561 80.2588 69.2495 80.6421 69.0526C81.0254 68.8556 81.3585 68.5736 81.616 68.228C82.4403 68.9402 83.4879 69.3417 84.5771 69.3629C85.6663 69.3841 86.7286 69.0236 87.58 68.344C87.788 68.344 87.98 68.304 88.196 68.272C88.9269 68.8857 89.8286 69.2604 90.7792 69.3456C91.7298 69.4307 92.6837 69.2221 93.512 68.748C93.7529 69.0925 94.076 69.3715 94.4519 69.5597C94.8278 69.7479 95.2447 69.8394 95.6648 69.8258C96.085 69.8123 96.4952 69.6943 96.8582 69.4823C97.2212 69.2704 97.5257 68.9712 97.744 68.612C97.9743 68.989 98.2993 69.2992 98.6867 69.5118C99.074 69.7243 99.5102 69.8318 99.952 69.8236C100.394 69.8153 100.826 69.6916 101.205 69.4648C101.584 69.2379 101.897 68.9158 102.113 68.5304C102.329 68.145 102.441 67.7098 102.437 67.268C102.432 66.8262 102.313 66.3932 102.089 66.012C101.866 65.6308 101.547 65.3146 101.163 65.095C100.78 64.8754 100.346 64.7599 99.904 64.76L99.868 64.724Z" fill="white"/>
<path d="M97.2 68.892C96.7613 68.8915 96.3291 68.7854 95.94 68.5829C95.5508 68.3803 95.2161 68.0871 94.964 67.728C94.0649 68.2412 93.0298 68.4657 91.9989 68.3713C90.968 68.2769 89.9909 67.868 89.2 67.2C88.984 67.236 88.76 67.26 88.536 67.276C87.6167 68.0068 86.4711 68.3939 85.2969 68.3705C84.1228 68.3472 82.9935 67.9148 82.104 67.148C81.8258 67.5173 81.4673 67.8186 81.0555 68.0291C80.6438 68.2396 80.1897 68.3537 79.7273 68.363C79.265 68.3722 78.8067 68.2763 78.3869 68.0825C77.9671 67.8886 77.5968 67.6019 77.304 67.244C76.9922 67.6305 76.5908 67.935 76.1347 68.1312C75.6786 68.3275 75.1814 68.4094 74.6864 68.37C74.1914 68.3306 73.7135 68.171 73.2942 67.9051C72.8748 67.6392 72.5267 67.2749 72.28 66.844C72.012 67.1404 71.682 67.3742 71.3135 67.5288C70.945 67.6834 70.547 67.7551 70.1477 67.7387C69.7484 67.7223 69.3576 67.6182 69.003 67.4338C68.6485 67.2495 68.3388 66.9894 68.096 66.672C68.1884 67.1317 68.4065 67.5567 68.7262 67.8996C69.0459 68.2426 69.4545 68.4901 69.9065 68.6145C70.3585 68.7389 70.8363 68.7354 71.2864 68.6043C71.7365 68.4732 72.1415 68.2197 72.456 67.872C72.6811 68.2749 73.0015 68.6165 73.3892 68.8669C73.7769 69.1174 74.22 69.2689 74.6799 69.3084C75.1397 69.3479 75.6022 69.274 76.0269 69.0934C76.4516 68.9127 76.8255 68.6307 77.116 68.272C77.3863 68.6076 77.7298 68.877 78.1203 69.0594C78.5107 69.2417 78.9377 69.3324 79.3686 69.3242C79.7995 69.3161 80.2228 69.2095 80.6061 69.0126C80.9894 68.8156 81.3225 68.5336 81.58 68.188C82.4044 68.9002 83.4518 69.3017 84.5411 69.3229C85.6303 69.3441 86.6926 68.9836 87.544 68.304C87.752 68.304 87.944 68.264 88.16 68.232C88.8909 68.8457 89.7926 69.2205 90.7432 69.3056C91.6938 69.3907 92.6477 69.1821 93.476 68.708C93.6987 69.0281 93.9926 69.2923 94.3346 69.4795C94.6766 69.6668 95.0575 69.7722 95.4471 69.7873C95.8368 69.8024 96.2247 69.7269 96.5802 69.5667C96.9357 69.4065 97.2492 69.1659 97.496 68.864C97.3979 68.8787 97.2991 68.888 97.2 68.892Z" fill="#407BFF"/>
<path d="M99.504 67.6C99.1314 68.1954 98.5443 68.625 97.864 68.8C98.0938 69.1006 98.3883 69.3458 98.7256 69.5172C99.063 69.6887 99.4345 69.7821 99.8129 69.7905C100.191 69.799 100.567 69.7222 100.911 69.566C101.256 69.4098 101.561 69.1781 101.804 68.888C101.343 68.8844 100.891 68.7644 100.489 68.5393C100.087 68.3141 99.7479 67.991 99.504 67.6Z" fill="#407BFF"/>
<g opacity="0.7">
<path d="M97.2 68.892C96.7613 68.8915 96.3291 68.7854 95.94 68.5829C95.5508 68.3803 95.2161 68.0871 94.964 67.728C94.0649 68.2412 93.0298 68.4657 91.9989 68.3713C90.968 68.2769 89.9909 67.868 89.2 67.2C88.984 67.236 88.76 67.26 88.536 67.276C87.6167 68.0068 86.4711 68.3939 85.2969 68.3705C84.1228 68.3472 82.9935 67.9148 82.104 67.148C81.8258 67.5173 81.4673 67.8186 81.0555 68.0291C80.6438 68.2396 80.1897 68.3537 79.7273 68.363C79.265 68.3722 78.8067 68.2763 78.3869 68.0825C77.9671 67.8886 77.5968 67.6019 77.304 67.244C76.9922 67.6305 76.5908 67.935 76.1347 68.1312C75.6786 68.3275 75.1814 68.4094 74.6864 68.37C74.1914 68.3306 73.7135 68.171 73.2942 67.9051C72.8748 67.6392 72.5267 67.2749 72.28 66.844C72.012 67.1404 71.682 67.3742 71.3135 67.5288C70.945 67.6834 70.547 67.7551 70.1477 67.7387C69.7484 67.7223 69.3576 67.6182 69.003 67.4338C68.6485 67.2495 68.3388 66.9894 68.096 66.672C68.1884 67.1317 68.4065 67.5567 68.7262 67.8996C69.0459 68.2426 69.4545 68.4901 69.9065 68.6145C70.3585 68.7389 70.8363 68.7354 71.2864 68.6043C71.7365 68.4732 72.1415 68.2197 72.456 67.872C72.6811 68.2749 73.0015 68.6165 73.3892 68.8669C73.7769 69.1174 74.22 69.2689 74.6799 69.3084C75.1397 69.3479 75.6022 69.274 76.0269 69.0934C76.4516 68.9127 76.8255 68.6307 77.116 68.272C77.3863 68.6076 77.7298 68.877 78.1203 69.0594C78.5107 69.2417 78.9377 69.3324 79.3686 69.3242C79.7995 69.3161 80.2228 69.2095 80.6061 69.0126C80.9894 68.8156 81.3225 68.5336 81.58 68.188C82.4044 68.9002 83.4518 69.3017 84.5411 69.3229C85.6303 69.3441 86.6926 68.9836 87.544 68.304C87.752 68.304 87.944 68.264 88.16 68.232C88.8909 68.8457 89.7926 69.2205 90.7432 69.3056C91.6938 69.3907 92.6477 69.1821 93.476 68.708C93.6987 69.0281 93.9926 69.2923 94.3346 69.4795C94.6766 69.6668 95.0575 69.7722 95.4471 69.7873C95.8368 69.8024 96.2247 69.7269 96.5802 69.5667C96.9357 69.4065 97.2492 69.1659 97.496 68.864C97.3979 68.8787 97.2991 68.888 97.2 68.892Z" fill="white"/>
<path d="M99.504 67.6C99.1314 68.1954 98.5443 68.625 97.864 68.8C98.0938 69.1006 98.3883 69.3457 98.7256 69.5172C99.063 69.6887 99.4346 69.7821 99.8129 69.7905C100.191 69.799 100.567 69.7222 100.911 69.566C101.256 69.4098 101.561 69.1781 101.804 68.888C101.343 68.8844 100.891 68.7644 100.489 68.5393C100.087 68.3141 99.7479 67.991 99.504 67.6Z" fill="white"/>
</g>
<path d="M111.088 67.092C111.349 67.0926 111.607 67.1443 111.848 67.244C111.848 67.196 111.848 67.144 111.848 67.092C111.849 66.6504 111.995 66.2215 112.265 65.872C112.535 65.5225 112.913 65.2722 113.34 65.16C113.194 64.8804 113.115 64.5702 113.112 64.2546C113.108 63.939 113.179 63.627 113.319 63.3442C113.459 63.0613 113.664 62.8156 113.917 62.6272C114.171 62.4388 114.465 62.3129 114.776 62.26C114.925 61.9881 115.128 61.7499 115.373 61.5605C115.618 61.371 115.9 61.2344 116.201 61.1593C116.501 61.0841 116.814 61.072 117.12 61.1238C117.425 61.1755 117.717 61.29 117.976 61.46C118.533 60.9727 119.193 60.6194 119.908 60.4272C120.622 60.2349 121.371 60.2089 122.097 60.351C122.823 60.4931 123.507 60.7996 124.096 61.247C124.685 61.6944 125.164 62.2708 125.496 62.932C125.666 62.8901 125.841 62.8686 126.016 62.868C126.401 62.8676 126.779 62.9668 127.114 63.1561C127.449 63.3454 127.73 63.6182 127.928 63.948C128.263 63.5987 128.714 63.383 129.197 63.3408C129.679 63.2987 130.16 63.433 130.551 63.7188C130.942 64.0047 131.216 64.4226 131.322 64.8951C131.428 65.3676 131.359 65.8625 131.128 66.288C131.715 66.3661 132.248 66.6721 132.612 67.14C132.847 66.7972 133.182 66.5359 133.572 66.3924C133.962 66.249 134.386 66.2304 134.787 66.3393C135.188 66.4482 135.545 66.6792 135.808 67.0002C136.072 67.3213 136.229 67.7164 136.258 68.1307C136.287 68.5451 136.186 68.9581 135.969 69.3125C135.752 69.6668 135.431 69.945 135.049 70.1083C134.667 70.2716 134.244 70.3119 133.838 70.2237C133.432 70.1355 133.064 69.9231 132.784 69.616C132.604 69.9328 132.349 70.2008 132.042 70.3968C131.735 70.5927 131.384 70.7105 131.021 70.7401C130.658 70.7697 130.293 70.7101 129.958 70.5664C129.624 70.4228 129.329 70.1995 129.1 69.916C128.886 70.1812 128.614 70.3939 128.305 70.5379C127.996 70.6819 127.658 70.7534 127.317 70.7468C126.977 70.7402 126.642 70.6558 126.339 70.5001C126.035 70.3443 125.772 70.1212 125.568 69.848C124.917 70.4125 124.088 70.7309 123.227 70.7477C122.365 70.7645 121.525 70.4787 120.852 69.94C120.688 69.9315 120.525 69.9128 120.364 69.884C119.786 70.3699 119.073 70.6665 118.321 70.7337C117.569 70.801 116.815 70.6356 116.16 70.26C115.97 70.5318 115.714 70.752 115.418 70.9006C115.121 71.0492 114.792 71.1217 114.46 71.1113C114.128 71.101 113.804 71.0083 113.517 70.8415C113.23 70.6747 112.989 70.4392 112.816 70.156C112.633 70.453 112.376 70.697 112.07 70.8639C111.764 71.0309 111.419 71.1148 111.071 71.1076C110.722 71.1003 110.382 71.002 110.083 70.8224C109.784 70.6429 109.537 70.3883 109.367 70.084C109.197 69.7796 109.109 69.4361 109.113 69.0874C109.116 68.7387 109.211 68.3971 109.387 68.0963C109.564 67.7955 109.816 67.5461 110.118 67.3727C110.421 67.1994 110.763 67.1081 111.112 67.108L111.088 67.092Z" fill="#407BFF"/>
<path opacity="0.9" d="M111.088 67.092C111.349 67.0926 111.607 67.1443 111.848 67.244C111.848 67.196 111.848 67.144 111.848 67.092C111.849 66.6504 111.995 66.2215 112.265 65.872C112.535 65.5225 112.913 65.2722 113.34 65.16C113.194 64.8804 113.115 64.5702 113.112 64.2546C113.108 63.939 113.179 63.627 113.319 63.3442C113.459 63.0613 113.664 62.8156 113.917 62.6272C114.171 62.4388 114.465 62.3129 114.776 62.26C114.925 61.9881 115.128 61.7499 115.373 61.5605C115.618 61.371 115.9 61.2344 116.201 61.1593C116.501 61.0841 116.814 61.072 117.12 61.1238C117.425 61.1755 117.717 61.29 117.976 61.46C118.533 60.9727 119.193 60.6194 119.908 60.4272C120.622 60.2349 121.371 60.2089 122.097 60.351C122.823 60.4931 123.507 60.7996 124.096 61.247C124.685 61.6944 125.164 62.2708 125.496 62.932C125.666 62.8901 125.841 62.8686 126.016 62.868C126.401 62.8676 126.779 62.9668 127.114 63.1561C127.449 63.3454 127.73 63.6182 127.928 63.948C128.263 63.5987 128.714 63.383 129.197 63.3408C129.679 63.2987 130.16 63.433 130.551 63.7188C130.942 64.0047 131.216 64.4226 131.322 64.8951C131.428 65.3676 131.359 65.8625 131.128 66.288C131.715 66.3661 132.248 66.6721 132.612 67.14C132.847 66.7972 133.182 66.5359 133.572 66.3924C133.962 66.249 134.386 66.2304 134.787 66.3393C135.188 66.4482 135.545 66.6792 135.808 67.0002C136.072 67.3213 136.229 67.7164 136.258 68.1307C136.287 68.5451 136.186 68.9581 135.969 69.3125C135.752 69.6668 135.431 69.945 135.049 70.1083C134.667 70.2716 134.244 70.3119 133.838 70.2237C133.432 70.1355 133.064 69.9231 132.784 69.616C132.604 69.9328 132.349 70.2008 132.042 70.3968C131.735 70.5927 131.384 70.7105 131.021 70.7401C130.658 70.7697 130.293 70.7101 129.958 70.5664C129.624 70.4228 129.329 70.1995 129.1 69.916C128.886 70.1812 128.614 70.3939 128.305 70.5379C127.996 70.6819 127.658 70.7534 127.317 70.7468C126.977 70.7402 126.642 70.6558 126.339 70.5001C126.035 70.3443 125.772 70.1212 125.568 69.848C124.917 70.4125 124.088 70.7309 123.227 70.7477C122.365 70.7645 121.525 70.4787 120.852 69.94C120.688 69.9315 120.525 69.9128 120.364 69.884C119.786 70.3699 119.073 70.6665 118.321 70.7337C117.569 70.801 116.815 70.6356 116.16 70.26C115.97 70.5318 115.714 70.752 115.418 70.9006C115.121 71.0492 114.792 71.1217 114.46 71.1113C114.128 71.101 113.804 71.0083 113.517 70.8415C113.23 70.6747 112.989 70.4392 112.816 70.156C112.633 70.453 112.376 70.697 112.07 70.8639C111.764 71.0309 111.419 71.1148 111.071 71.1076C110.722 71.1003 110.382 71.002 110.083 70.8224C109.784 70.6429 109.537 70.3883 109.367 70.084C109.197 69.7796 109.109 69.4361 109.113 69.0874C109.116 68.7387 109.211 68.3971 109.387 68.0963C109.564 67.7955 109.816 67.5461 110.118 67.3727C110.421 67.1994 110.763 67.1081 111.112 67.108L111.088 67.092Z" fill="white"/>
<path d="M113.2 70.4C113.547 70.4002 113.889 70.3167 114.197 70.1566C114.504 69.9964 114.769 69.7643 114.968 69.48C115.673 69.8847 116.485 70.0633 117.295 69.9918C118.105 69.9202 118.873 69.602 119.496 69.08C119.67 69.112 119.847 69.1321 120.024 69.14C120.749 69.7204 121.655 70.0285 122.583 70.011C123.512 69.9934 124.405 69.6513 125.108 69.044C125.327 69.3396 125.61 69.5811 125.937 69.7497C126.264 69.9183 126.625 70.0096 126.992 70.0166C127.36 70.0235 127.724 69.946 128.057 69.7898C128.39 69.6337 128.682 69.4031 128.912 69.116C129.158 69.4247 129.475 69.6681 129.837 69.8247C130.199 69.9813 130.594 70.0463 130.988 70.0139C131.381 69.9814 131.76 69.8526 132.091 69.6388C132.423 69.425 132.696 69.1328 132.888 68.788C133.099 69.0232 133.359 69.2088 133.651 69.3317C133.942 69.4545 134.256 69.5114 134.572 69.4984C134.888 69.4854 135.197 69.4028 135.477 69.2565C135.757 69.1102 136.001 68.9037 136.192 68.652C136.118 69.0126 135.945 69.3456 135.693 69.6144C135.442 69.8832 135.121 70.0773 134.766 70.1753C134.411 70.2733 134.036 70.2715 133.682 70.17C133.328 70.0685 133.009 69.8712 132.76 69.6C132.58 69.9168 132.325 70.1848 132.018 70.3808C131.711 70.5767 131.36 70.6945 130.997 70.7241C130.634 70.7537 130.269 70.6941 129.934 70.5504C129.6 70.4068 129.305 70.1835 129.076 69.9C128.862 70.1652 128.59 70.3779 128.281 70.5219C127.972 70.6659 127.634 70.7374 127.293 70.7308C126.953 70.7242 126.618 70.6398 126.315 70.4841C126.011 70.3283 125.748 70.1053 125.544 69.832C124.893 70.3965 124.064 70.7149 123.203 70.7317C122.341 70.7485 121.501 70.4627 120.828 69.924C120.664 69.9155 120.501 69.8968 120.34 69.868C119.762 70.3539 119.049 70.6505 118.297 70.7177C117.545 70.785 116.791 70.6196 116.136 70.244C115.959 70.4957 115.727 70.7032 115.457 70.8505C115.187 70.9978 114.887 71.0808 114.58 71.0932C114.272 71.1056 113.966 71.047 113.686 70.9219C113.405 70.7968 113.156 70.6086 112.96 70.372C113.044 70.4 113.128 70.4 113.2 70.4Z" fill="#407BFF"/>
<path d="M111.372 69.352C111.664 69.8283 112.128 70.1736 112.668 70.316C112.486 70.5523 112.253 70.7448 111.986 70.8794C111.72 71.014 111.427 71.0872 111.128 71.0938C110.83 71.1003 110.534 71.0399 110.262 70.9171C109.99 70.7943 109.748 70.6121 109.556 70.384C109.921 70.38 110.28 70.2831 110.597 70.1026C110.915 69.9221 111.182 69.6638 111.372 69.352Z" fill="#407BFF"/>
<g opacity="0.7">
<path d="M113.2 70.4C113.547 70.4002 113.889 70.3167 114.197 70.1566C114.504 69.9964 114.769 69.7643 114.968 69.48C115.673 69.8847 116.485 70.0633 117.295 69.9918C118.105 69.9202 118.873 69.602 119.496 69.08C119.67 69.112 119.847 69.1321 120.024 69.14C120.749 69.7204 121.655 70.0285 122.583 70.011C123.512 69.9934 124.405 69.6513 125.108 69.044C125.327 69.3396 125.61 69.5811 125.937 69.7497C126.264 69.9183 126.625 70.0096 126.992 70.0166C127.36 70.0235 127.724 69.946 128.057 69.7898C128.39 69.6337 128.682 69.4031 128.912 69.116C129.158 69.4247 129.475 69.6681 129.837 69.8247C130.199 69.9813 130.594 70.0463 130.988 70.0139C131.381 69.9814 131.76 69.8526 132.091 69.6388C132.423 69.425 132.696 69.1328 132.888 68.788C133.099 69.0232 133.359 69.2088 133.651 69.3317C133.942 69.4545 134.256 69.5114 134.572 69.4984C134.888 69.4854 135.197 69.4028 135.477 69.2565C135.757 69.1102 136.001 68.9037 136.192 68.652C136.118 69.0126 135.945 69.3456 135.693 69.6144C135.442 69.8832 135.121 70.0773 134.766 70.1753C134.411 70.2733 134.036 70.2715 133.682 70.17C133.328 70.0685 133.009 69.8712 132.76 69.6C132.58 69.9168 132.325 70.1848 132.018 70.3808C131.711 70.5767 131.36 70.6945 130.997 70.7241C130.634 70.7537 130.269 70.6941 129.934 70.5504C129.6 70.4068 129.305 70.1835 129.076 69.9C128.862 70.1652 128.59 70.3779 128.281 70.5219C127.972 70.6659 127.634 70.7374 127.293 70.7308C126.953 70.7242 126.618 70.6398 126.315 70.4841C126.011 70.3283 125.748 70.1053 125.544 69.832C124.893 70.3965 124.064 70.7149 123.203 70.7317C122.341 70.7485 121.501 70.4627 120.828 69.924C120.664 69.9155 120.501 69.8968 120.34 69.868C119.762 70.3539 119.049 70.6505 118.297 70.7177C117.545 70.785 116.791 70.6196 116.136 70.244C115.959 70.4957 115.727 70.7032 115.457 70.8505C115.187 70.9978 114.887 71.0808 114.58 71.0932C114.272 71.1056 113.966 71.047 113.686 70.9219C113.405 70.7968 113.156 70.6086 112.96 70.372C113.044 70.4 113.128 70.4 113.2 70.4Z" fill="white"/>
<path d="M111.372 69.352C111.664 69.8283 112.128 70.1736 112.668 70.316C112.486 70.5523 112.253 70.7448 111.986 70.8794C111.72 71.014 111.427 71.0872 111.128 71.0938C110.83 71.1003 110.534 71.0399 110.262 70.9171C109.99 70.7943 109.748 70.6121 109.556 70.384C109.921 70.38 110.28 70.2831 110.597 70.1026C110.915 69.9221 111.182 69.6638 111.372 69.352Z" fill="white"/>
</g>
<path d="M99.3 127.32C99.3 127.32 99.512 133.2 102.852 133.2C106.192 133.2 109.528 116.508 109.528 116.508V104.58L103.804 101.8L99.3 109.2L97.6 120.324L99.3 127.32Z" fill="#407BFF"/>
<path opacity="0.7" d="M99.3 127.32C99.3 127.32 99.512 133.2 102.852 133.2C106.192 133.2 109.528 116.508 109.528 116.508V104.58L103.804 101.8L99.3 109.2L97.6 120.324L99.3 127.32Z" fill="white"/>
<path opacity="0.2" d="M99.3 127.32C99.3 127.32 99.512 133.2 102.852 133.2C106.192 133.2 109.528 116.508 109.528 116.508V104.58L103.804 101.8L99.3 109.2L97.6 120.324L99.3 127.32Z" fill="black"/>
<path d="M77.968 105.852C77.568 111.164 76.536 117.54 81.544 126.84C86.552 136.14 92.04 134.952 90.368 124.696C90.368 124.696 92.04 134.236 97.284 134.236C102.528 134.236 101.34 110.636 105.156 110.636C108.972 110.636 105.156 134.236 110.64 134.236C116.124 134.236 122.088 121.596 120.896 111.836C119.704 102.076 120.896 97.288 124.712 91.088C128.528 84.888 128.932 68.364 117.796 70.1C115.752 70.42 109.688 71.768 109.688 71.768C109.688 71.768 104.916 68.192 99.688 71.056C99.688 71.056 93.724 67 87.76 71.532C87.76 71.532 79.416 66.76 74.404 72.248C69.392 77.736 71.784 87.272 74.404 92.04C77.024 96.808 78.4 99.672 77.968 105.852Z" fill="#407BFF"/>
<path opacity="0.8" d="M77.968 105.852C77.568 111.164 76.536 117.54 81.544 126.84C86.552 136.14 92.04 134.952 90.368 124.696C90.368 124.696 92.04 134.236 97.284 134.236C102.528 134.236 101.34 110.636 105.156 110.636C108.972 110.636 105.156 134.236 110.64 134.236C116.124 134.236 122.088 121.596 120.896 111.836C119.704 102.076 120.896 97.288 124.712 91.088C128.528 84.888 128.932 68.364 117.796 70.1C115.752 70.42 109.688 71.768 109.688 71.768C109.688 71.768 104.916 68.192 99.688 71.056C99.688 71.056 93.724 67 87.76 71.532C87.76 71.532 79.416 66.76 74.404 72.248C69.392 77.736 71.784 87.272 74.404 92.04C77.024 96.808 78.4 99.672 77.968 105.852Z" fill="white"/>
<g opacity="0.1">
<path d="M82.02 110.464C81.62 114.064 83.924 128.508 86.94 132.936C89.644 134 91.416 131.136 90.368 124.696C90.368 124.696 88.7 118.572 87.428 112.212C86.156 105.852 82.5 106.172 82.02 110.464Z" fill="black"/>
<path d="M90.368 124.696C90.368 124.696 90.404 124.896 90.48 125.232C90.4 124.896 90.368 124.696 90.368 124.696Z" fill="black"/>
</g>
<path opacity="0.1" d="M107.46 108.08C104.76 106.808 103.348 113.172 103.348 113.172C103.808 111.608 104.376 110.624 105.156 110.624C108.972 110.624 105.156 134.224 110.64 134.224C107.3 134.236 110.164 109.352 107.46 108.08Z" fill="black"/>
<path opacity="0.4" d="M117.796 70.08C115.752 70.4 109.688 71.748 109.688 71.748C109.688 71.748 104.916 68.172 99.688 71.036C99.688 71.036 93.724 66.98 87.76 71.512C87.76 71.512 79.416 66.74 74.404 72.228C71.412 75.504 71.06 80.228 71.824 84.524C71.824 84.524 73.928 91.704 79.652 90.272C85.376 88.84 89.192 90.272 103.58 93.292C117.968 96.312 123.448 93.952 126.116 87.9C128.4 80.56 127.36 68.592 117.796 70.08Z" fill="white"/>
<path d="M91.448 119.412C91.3092 119.443 91.1657 119.446 91.0257 119.421C90.8858 119.396 90.7523 119.343 90.633 119.265C90.5138 119.188 90.4113 119.087 90.3314 118.969C90.2516 118.852 90.196 118.719 90.168 118.58C88.944 112.5 88.696 107.52 88.48 103.1C88.404 101.572 88.332 100.108 88.22 98.736C88.2023 98.4561 88.2949 98.1804 88.4782 97.968C88.6614 97.7556 88.9205 97.6235 89.2 97.6C89.3429 97.5863 89.487 97.6012 89.6241 97.6438C89.7611 97.6865 89.8883 97.756 89.9982 97.8484C90.108 97.9407 90.1984 98.0541 90.2639 98.1817C90.3295 98.3094 90.369 98.4489 90.38 98.592C90.492 99.992 90.564 101.468 90.64 102.992C90.856 107.332 91.096 112.224 92.288 118.14C92.345 118.418 92.2901 118.708 92.1351 118.946C91.9801 119.184 91.7376 119.351 91.46 119.412H91.448Z" fill="#407BFF"/>
<path d="M86.716 90.62C85.799 86.673 85.7118 82.5785 86.46 78.596C86.4888 78.4425 86.549 78.2967 86.6369 78.1676C86.7248 78.0386 86.8384 77.9291 86.9707 77.8461C87.1029 77.763 87.2509 77.7083 87.4053 77.6852C87.5597 77.6621 87.7173 77.6713 87.868 77.712C88.1436 77.784 88.3818 77.9577 88.5346 78.1981C88.6875 78.4385 88.7437 78.7279 88.692 79.008C88.332 80.96 87.76 85.408 88.916 90.076C88.986 90.3574 88.9454 90.6549 88.8025 90.9072C88.6596 91.1595 88.4253 91.3473 88.148 91.432C88.0007 91.4767 87.8458 91.491 87.6928 91.474C87.5398 91.457 87.3918 91.4091 87.2579 91.3331C87.1239 91.2572 87.0068 91.1548 86.9137 91.0322C86.8205 90.9096 86.7533 90.7694 86.716 90.62Z" fill="#407BFF"/>
<g opacity="0.9">
<path d="M91.448 119.412C91.3092 119.443 91.1657 119.446 91.0257 119.421C90.8858 119.396 90.7523 119.343 90.633 119.265C90.5138 119.188 90.4113 119.087 90.3314 118.969C90.2516 118.852 90.196 118.719 90.168 118.58C88.944 112.5 88.696 107.52 88.48 103.1C88.404 101.572 88.332 100.108 88.22 98.736C88.2023 98.4561 88.2949 98.1804 88.4782 97.968C88.6614 97.7556 88.9205 97.6235 89.2 97.6C89.3429 97.5863 89.487 97.6012 89.6241 97.6438C89.7611 97.6865 89.8883 97.756 89.9982 97.8484C90.108 97.9407 90.1984 98.0541 90.2639 98.1817C90.3295 98.3094 90.369 98.4489 90.38 98.592C90.492 99.992 90.564 101.468 90.64 102.992C90.856 107.332 91.096 112.224 92.288 118.14C92.345 118.418 92.2901 118.708 92.1351 118.946C91.9801 119.184 91.7376 119.351 91.46 119.412H91.448Z" fill="white"/>
</g>
<g opacity="0.9">
<path d="M86.716 90.62C85.799 86.673 85.7118 82.5785 86.46 78.596C86.4888 78.4425 86.549 78.2967 86.6369 78.1676C86.7248 78.0386 86.8384 77.9291 86.9707 77.8461C87.1029 77.763 87.2509 77.7083 87.4053 77.6852C87.5597 77.6621 87.7173 77.6713 87.868 77.712C88.1436 77.784 88.3818 77.9577 88.5346 78.1981C88.6875 78.4385 88.7437 78.7279 88.692 79.008C88.332 80.96 87.76 85.408 88.916 90.076C88.986 90.3574 88.9454 90.6549 88.8025 90.9072C88.6596 91.1595 88.4253 91.3473 88.148 91.432C88.0007 91.4767 87.8458 91.491 87.6928 91.474C87.5398 91.457 87.3918 91.4091 87.2579 91.3331C87.1239 91.2572 87.0068 91.1548 86.9137 91.0322C86.8205 90.9096 86.7533 90.7694 86.716 90.62Z" fill="white"/>
</g>
<path opacity="0.1" d="M83.372 69.9C83.1038 70.0315 82.8681 70.2208 82.6818 70.4544C82.4956 70.688 82.3635 70.9599 82.295 71.2507C82.2265 71.5414 82.2234 71.8437 82.2858 72.1359C82.3482 72.428 82.4747 72.7026 82.656 72.94C84.028 74.412 87.744 71.512 87.744 71.512C86.367 70.7779 84.896 70.2355 83.372 69.9Z" fill="black"/>
<path opacity="0.1" d="M115.568 71.628C113.168 72.148 109.688 71.748 109.688 71.748C109.688 71.748 104.916 68.172 99.688 71.036C102.736 72.5985 106.119 73.396 109.544 73.36C115.412 73.36 117.956 71.112 115.568 71.628Z" fill="black"/>
<path d="M126.252 161.292L123.404 160.22L125.084 153.32L127.932 154.396L126.252 161.292Z" fill="#7F3E3B"/>
<path d="M123.156 159.748L126.628 161.056C126.685 161.078 126.732 161.118 126.764 161.17C126.795 161.223 126.808 161.284 126.8 161.344L126.432 164.096C126.423 164.163 126.399 164.226 126.361 164.282C126.324 164.338 126.274 164.385 126.216 164.419C126.158 164.453 126.092 164.473 126.025 164.478C125.958 164.483 125.891 164.473 125.828 164.448C124.72 164.008 123.928 163.648 122.52 163.104C121.656 162.776 119.012 161.884 117.82 161.432C116.628 160.98 116.9 159.736 117.42 159.812C119.792 160.16 121.688 160.12 122.62 159.748C122.793 159.682 122.983 159.682 123.156 159.748Z" fill="#263238"/>
<path d="M122.032 159.892C121.832 159.833 121.658 159.709 121.536 159.54C121.505 159.478 121.489 159.409 121.489 159.34C121.489 159.271 121.505 159.202 121.536 159.14C121.551 159.101 121.576 159.066 121.609 159.04C121.643 159.014 121.682 158.997 121.724 158.992C122.096 158.948 122.808 159.864 122.888 159.968C122.896 159.98 122.9 159.994 122.9 160.008C122.9 160.022 122.896 160.036 122.888 160.048C122.882 160.06 122.872 160.07 122.86 160.077C122.847 160.083 122.834 160.086 122.82 160.084C122.551 160.05 122.287 159.985 122.032 159.892ZM121.824 159.14C121.794 159.135 121.762 159.135 121.732 159.14C121.712 159.14 121.684 159.14 121.66 159.204C121.637 159.247 121.625 159.295 121.625 159.344C121.625 159.393 121.637 159.441 121.66 159.484C121.924 159.749 122.278 159.905 122.652 159.92C122.429 159.609 122.148 159.344 121.824 159.14Z" fill="#407BFF"/>
<path d="M122.8 160.068L122.768 160.048C122.532 159.776 122.192 158.932 122.368 158.636C122.397 158.59 122.44 158.556 122.491 158.539C122.542 158.521 122.597 158.522 122.648 158.54C122.702 158.553 122.753 158.577 122.797 158.611C122.841 158.645 122.877 158.687 122.904 158.736C123.136 159.136 122.904 159.984 122.904 160.02C122.9 160.032 122.893 160.042 122.884 160.051C122.875 160.059 122.864 160.065 122.852 160.068H122.8ZM122.648 158.692H122.616C122.524 158.668 122.5 158.692 122.492 158.72C122.388 158.896 122.576 159.52 122.788 159.84C122.89 159.506 122.89 159.15 122.788 158.816C122.759 158.758 122.709 158.713 122.648 158.692Z" fill="#407BFF"/>
<path opacity="0.2" d="M124.064 157.516L127.028 158.1L127.896 154.544L124.928 153.96L124.064 157.516Z" fill="black"/>
<path d="M140.304 92.524C140.304 92.524 133.224 117.724 130.964 126.248C128.964 133.788 123.528 155.54 123.528 155.54L128.728 156.652C128.728 156.652 135.736 135.296 138.156 128.208C141.036 119.784 150.332 94.608 150.332 94.608L140.304 92.524Z" fill="#263238"/>
<path d="M123.052 156.176L129.156 157.244L129.676 155.4L123.1 153.92L123.052 156.176Z" fill="#407BFF"/>
<path opacity="0.5" d="M147.812 101.472L147.684 99.3L146.02 98C146.02 98 142.86 107.408 142.168 116.928C144.088 111.632 146.208 105.832 147.812 101.472Z" fill="black"/>
<path d="M152.908 161.876H149.868L149.004 154.832H152.048L152.908 161.876Z" fill="#7F3E3B"/>
<path d="M149.468 161.524H153.176C153.237 161.525 153.296 161.546 153.343 161.583C153.391 161.621 153.425 161.673 153.44 161.732L154.068 164.436C154.083 164.502 154.083 164.57 154.068 164.636C154.053 164.701 154.023 164.763 153.981 164.815C153.938 164.868 153.884 164.91 153.823 164.938C153.762 164.967 153.695 164.981 153.628 164.98C152.428 164.96 151.56 164.888 150.056 164.888C149.132 164.888 146.344 164.984 145.068 164.984C143.792 164.984 143.6 163.72 144.132 163.6C146.472 163.088 148.232 162.4 148.976 161.704C149.112 161.585 149.287 161.521 149.468 161.524Z" fill="#263238"/>
<path d="M148.468 162.056C148.26 162.072 148.053 162.017 147.88 161.9C147.825 161.854 147.782 161.796 147.754 161.73C147.727 161.663 147.717 161.591 147.724 161.52C147.724 161.478 147.736 161.437 147.758 161.401C147.78 161.365 147.811 161.336 147.848 161.316C148.18 161.144 149.168 161.748 149.28 161.816C149.292 161.823 149.302 161.834 149.308 161.847C149.315 161.86 149.317 161.874 149.316 161.888C149.313 161.902 149.307 161.916 149.297 161.926C149.287 161.937 149.274 161.944 149.26 161.948C149.001 162.014 148.735 162.051 148.468 162.056ZM148 161.428C147.97 161.421 147.938 161.421 147.908 161.428C147.893 161.436 147.88 161.448 147.871 161.463C147.863 161.478 147.859 161.495 147.86 161.512C147.855 161.561 147.861 161.611 147.879 161.657C147.897 161.703 147.926 161.744 147.964 161.776C148.304 161.93 148.69 161.949 149.044 161.828C148.724 161.631 148.37 161.495 148 161.428Z" fill="#407BFF"/>
<path d="M149.244 161.948C149.232 161.952 149.22 161.952 149.208 161.948C148.892 161.776 148.276 161.112 148.34 160.772C148.349 160.719 148.378 160.671 148.419 160.636C148.461 160.602 148.514 160.583 148.568 160.584C148.623 160.577 148.679 160.582 148.732 160.598C148.785 160.614 148.834 160.64 148.876 160.676C149.232 160.964 149.312 161.844 149.316 161.876C149.317 161.889 149.314 161.901 149.309 161.912C149.303 161.923 149.294 161.933 149.284 161.94C149.272 161.946 149.258 161.949 149.244 161.948ZM148.616 160.716H148.584C148.492 160.716 148.484 160.772 148.48 160.792C148.444 160.992 148.836 161.496 149.152 161.732C149.128 161.394 149.006 161.069 148.8 160.8C148.777 160.774 148.748 160.753 148.717 160.739C148.685 160.724 148.651 160.717 148.616 160.716Z" fill="#407BFF"/>
<path opacity="0.2" d="M149.028 155.032L149.516 159.004H152.556L152.072 155.032H149.028Z" fill="black"/>
<path d="M145.576 93.632C145.576 93.632 145.552 118.432 145.436 127.356C145.312 137.132 148.036 157.756 148.036 157.756H153.6C153.6 157.756 152.484 139 153.224 129.312C153.692 123.22 155.224 111.864 155.8 104.392C156.26 98.588 155.868 95.716 155.868 95.716L145.576 93.632Z" fill="#263238"/>
<path d="M147.368 157.88H153.932L153.912 155.92L147.06 155.524L147.368 157.88Z" fill="#407BFF"/>
<path d="M146.4 71.12C145.464 72.54 144.508 73.96 143.544 75.364L140.648 79.568C140.176 80.268 139.688 80.964 139.236 81.652C138.909 82.1526 138.511 82.6039 138.056 82.992C137.508 83.4605 136.845 83.7752 136.136 83.904C135.447 84.02 134.74 83.9496 134.088 83.7C133.555 83.4939 133.058 83.2035 132.616 82.84C132.222 82.5231 131.862 82.165 131.544 81.772C131.23 81.3963 130.947 80.9949 130.7 80.572L132.272 79.372C132.544 79.58 132.868 79.844 133.176 80.044C133.474 80.2426 133.787 80.4178 134.112 80.568C134.724 80.86 135.268 80.888 135.428 80.74C135.547 80.6629 135.651 80.5654 135.736 80.452C135.887 80.2416 136.021 80.0196 136.136 79.788C136.576 79.016 137.008 78.268 137.46 77.528C138.356 76.0533 139.272 74.596 140.208 73.156C141.144 71.716 142.1 70.296 143.084 68.884L146.4 71.12Z" fill="#803E3C"/>
<path d="M148.124 69.148C148.568 71.736 142.62 77.888 142.62 77.888L137.82 73.888C139.05 71.8511 140.497 69.9534 142.136 68.228C144.568 65.772 147.636 66.308 148.124 69.148Z" fill="#407BFF"/>
<path opacity="0.7" d="M148.124 69.148C148.568 71.736 142.62 77.888 142.62 77.888L137.82 73.888C139.05 71.8511 140.497 69.9534 142.136 68.228C144.568 65.772 147.636 66.308 148.124 69.148Z" fill="white"/>
<path opacity="0.2" d="M144.352 72.148C142.956 72.588 141.264 74.66 140.836 76.404L142.62 77.888C144.043 76.3959 145.352 74.7994 146.536 73.112C146.212 72.428 145.952 71.644 144.352 72.148Z" fill="black"/>
<path d="M161.804 69.948C160.523 73.0935 159.481 76.3306 158.684 79.632C158.116 81.936 157.676 84.148 157.324 86.16C156.798 89.3242 156.438 92.514 156.248 95.716L139.916 92.488C139.916 92.488 141.584 85.508 141.94 82.624C143.264 71.876 145.056 66.708 145.056 66.708C146.358 66.6381 147.663 66.6475 148.964 66.736C149.24 66.736 149.52 66.784 149.8 66.812C152.091 67.1386 154.362 67.598 156.6 68.188C157.024 68.296 157.452 68.416 157.868 68.54C159.972 69.172 161.804 69.948 161.804 69.948Z" fill="#407BFF"/>
<g opacity="0.7">
<path d="M161.804 69.948C160.523 73.0935 159.481 76.3306 158.684 79.632C158.116 81.936 157.676 84.148 157.324 86.16C156.798 89.3242 156.438 92.514 156.248 95.716L139.916 92.488C139.916 92.488 141.584 85.508 141.94 82.624C143.264 71.876 145.056 66.708 145.056 66.708C146.358 66.6381 147.663 66.6475 148.964 66.736C149.24 66.736 149.52 66.784 149.8 66.812C152.091 67.1386 154.362 67.598 156.6 68.188C157.024 68.296 157.452 68.416 157.868 68.54C159.972 69.172 161.804 69.948 161.804 69.948Z" fill="white"/>
</g>
<path opacity="0.2" d="M160.6 73.132L160.072 72L158.028 73.688C158.028 73.688 157.028 78.488 158.028 82.516C158.228 81.58 158.428 80.624 158.68 79.644C159.2 77.516 159.84 75.32 160.6 73.132Z" fill="black"/>
<path d="M157.384 60.4C156.536 62.496 155.34 66.4 156.584 68.18C155.774 68.7447 154.853 69.1281 153.881 69.3041C152.91 69.4802 151.912 69.4446 150.956 69.2C149.084 68.776 149.244 67.444 149.8 66.8C152.348 66.712 152.632 64.892 152.536 63.108L157.384 60.4Z" fill="#7F3E3B"/>
<path opacity="0.2" d="M155.408 61.516L152.536 63.116C152.574 63.5311 152.574 63.9489 152.536 64.364C153.492 64.416 154.964 63.656 155.252 62.7C155.376 62.3181 155.429 61.9169 155.408 61.516Z" fill="black"/>
<path d="M158.828 57.812C157.72 60.612 157.228 62.316 155.288 63.3C152.396 64.78 149.288 62.276 149.544 59.188C149.768 56.408 151.544 52.288 154.716 52.092C155.418 52.0493 156.12 52.1852 156.755 52.487C157.391 52.7887 157.939 53.2466 158.35 53.8178C158.76 54.3889 159.02 55.0548 159.103 55.7533C159.187 56.4518 159.092 57.16 158.828 57.812Z" fill="#7F3E3B"/>
<path d="M152.4 56.664C151.887 57.2563 151.295 57.7746 150.64 58.204C150.764 58.366 150.922 58.4998 151.102 58.5963C151.282 58.6929 151.48 58.75 151.684 58.764L152.4 56.664Z" fill="#630F0F"/>
<path d="M155.32 56.572C155.295 56.5672 155.271 56.5558 155.251 56.5389C155.232 56.5221 155.217 56.5004 155.208 56.476C155.153 56.3034 155.06 56.1457 154.934 56.0153C154.808 55.8848 154.654 55.7852 154.484 55.724C154.447 55.7137 154.416 55.6896 154.397 55.6568C154.377 55.6241 154.371 55.5851 154.38 55.548C154.384 55.5297 154.392 55.5125 154.403 55.4973C154.414 55.4821 154.428 55.4693 154.444 55.4596C154.46 55.4499 154.478 55.4435 154.496 55.4408C154.515 55.4382 154.534 55.4392 154.552 55.444C154.772 55.5171 154.971 55.6422 155.133 55.8086C155.294 55.975 155.413 56.1778 155.48 56.4C155.487 56.4178 155.49 56.4369 155.489 56.4559C155.489 56.475 155.484 56.4938 155.476 56.511C155.468 56.5283 155.456 56.5436 155.441 56.5562C155.427 56.5687 155.41 56.5782 155.392 56.584C155.367 56.5861 155.343 56.5819 155.32 56.572Z" fill="#263238"/>
<path d="M150.76 54.976C150.735 54.9702 150.712 54.9579 150.693 54.9403C150.674 54.9227 150.66 54.9005 150.652 54.8758C150.644 54.8511 150.643 54.8249 150.649 54.7996C150.654 54.7744 150.667 54.7511 150.684 54.732C150.84 54.5652 151.033 54.4382 151.248 54.3617C151.464 54.2851 151.694 54.2612 151.92 54.292C151.957 54.3006 151.99 54.3234 152.011 54.3554C152.032 54.3875 152.039 54.4264 152.032 54.464C152.024 54.501 152.002 54.5334 151.971 54.5544C151.939 54.5753 151.901 54.5831 151.864 54.576C151.685 54.5512 151.502 54.571 151.333 54.6338C151.163 54.6967 151.012 54.8005 150.892 54.936C150.875 54.9529 150.854 54.9654 150.831 54.9723C150.808 54.9793 150.784 54.9806 150.76 54.976Z" fill="#263238"/>
<path d="M132.26 79.244L130.236 77.324L129.28 80.268C129.28 80.268 131.192 81.868 131.976 80.856L132.26 79.244Z" fill="#7F3E3B"/>
<path d="M127.532 76.74L127.572 79.552L129.28 80.268L130.236 77.324L127.532 76.74Z" fill="#7F3E3B"/>
<path d="M151.6 59.456C152.568 59.4487 153.535 59.5331 154.488 59.708C154.148 60.308 153.608 60.756 152.528 60.584C152.391 60.5759 152.257 60.5396 152.135 60.4774C152.013 60.4152 151.905 60.3284 151.818 60.2225C151.731 60.1166 151.666 59.9939 151.629 59.862C151.591 59.7301 151.582 59.5919 151.6 59.456Z" fill="#263238"/>
<path d="M153.104 60.16C152.694 60.0751 152.267 60.1212 151.884 60.292C152.062 60.4551 152.288 60.5574 152.528 60.584C152.938 60.6729 153.366 60.6266 153.748 60.452C153.569 60.2896 153.344 60.1874 153.104 60.16Z" fill="#A02724"/>
<path d="M151.7 59.452C151.709 59.5329 151.741 59.6096 151.791 59.6738C151.841 59.738 151.908 59.7872 151.984 59.816C152.61 59.9099 153.243 59.9501 153.876 59.936C153.976 59.9425 154.077 59.9239 154.168 59.882C154.26 59.8401 154.339 59.7762 154.4 59.696C153.507 59.547 152.605 59.4655 151.7 59.452Z" fill="white"/>
<path d="M153.048 52.736C153.048 52.736 153.012 51.072 153.956 50.284C154.9 49.496 155.228 50.4 155.228 50.4C155.228 50.4 156.124 48.992 157.28 49.244C158.436 49.496 158.26 50.328 158.26 50.328C158.26 50.328 159.684 49.64 160.284 50.216C160.884 50.792 159.636 51.996 159.884 52.216C160.132 52.436 164.068 51.816 161.94 54.728C161.94 54.728 164.14 55.072 162.568 56.652C162.568 56.652 164.192 58.212 161.552 58.436C161.552 58.436 163.052 59.984 159.152 59.684L157.82 57.624L157.42 55.428L156.22 54.056L154.788 53.164L153.048 52.736Z" fill="#263238"/>
<path d="M157.228 59.696C157.228 59.696 157.668 57.248 155.504 54.788C155.395 54.6655 155.314 54.52 155.269 54.3622C155.224 54.2044 155.215 54.0384 155.242 53.8766C155.27 53.7148 155.334 53.5613 155.429 53.4275C155.524 53.2937 155.648 53.1832 155.792 53.104C156.002 52.9895 156.244 52.9479 156.48 52.9855C156.715 53.0231 156.932 53.138 157.096 53.312C157.964 54.252 159.372 56.348 158.78 59.628L157.228 59.696Z" fill="#407BFF"/>
<path opacity="0.5" d="M157.228 59.696C157.228 59.696 157.668 57.248 155.504 54.788C155.395 54.6655 155.314 54.52 155.269 54.3622C155.224 54.2044 155.215 54.0384 155.242 53.8766C155.27 53.7148 155.334 53.5613 155.429 53.4275C155.524 53.2937 155.648 53.1832 155.792 53.104C156.002 52.9895 156.244 52.9479 156.48 52.9855C156.715 53.0231 156.932 53.138 157.096 53.312C157.964 54.252 159.372 56.348 158.78 59.628L157.228 59.696Z" fill="white"/>
<path d="M159.156 60.56C158.935 60.8628 158.657 61.119 158.337 61.314C158.017 61.5089 157.662 61.6388 157.292 61.696C156.3 61.844 155.924 60.92 156.3 60.044C156.636 59.244 157.56 58.232 158.508 58.488C158.715 58.5474 158.904 58.6572 159.058 58.8075C159.212 58.9579 159.326 59.1441 159.39 59.3495C159.454 59.5549 159.466 59.773 159.426 59.9843C159.385 60.1955 159.292 60.3934 159.156 60.56Z" fill="#7F3E3B"/>
<path opacity="0.1" d="M156.424 54.376H156.444C156.552 54.3096 156.644 54.2215 156.716 54.1173C156.787 54.0131 156.836 53.8951 156.86 53.7708C156.883 53.6466 156.88 53.5188 156.851 53.3957C156.822 53.2726 156.768 53.1569 156.692 53.056C156.506 52.9852 156.304 52.967 156.109 53.0036C155.913 53.0402 155.732 53.13 155.584 53.2632C155.436 53.3964 155.328 53.5678 155.272 53.7586C155.215 53.9493 155.213 54.1519 155.264 54.344L155.664 54.468C155.79 54.5087 155.923 54.5215 156.054 54.5056C156.185 54.4897 156.312 54.4455 156.424 54.376Z" fill="black"/>
<path d="M154.284 57.144C154.204 57.38 154.012 57.544 153.856 57.48C153.7 57.416 153.64 57.192 153.72 56.952C153.8 56.712 153.992 56.552 154.148 56.616C154.304 56.68 154.364 56.904 154.284 57.144Z" fill="#263238"/>
<path d="M151.6 56.236C151.52 56.476 151.328 56.636 151.172 56.572C151.016 56.508 150.956 56.284 151.036 56.044C151.116 55.804 151.308 55.644 151.464 55.708C151.62 55.772 151.664 56 151.6 56.236Z" fill="#263238"/>
<path d="M151.512 55.744L150.992 55.384C150.992 55.384 151.136 55.932 151.512 55.744Z" fill="#263238"/>
<path d="M154.212 56.652L153.692 56.292C153.692 56.292 153.836 56.84 154.212 56.652Z" fill="#263238"/>
<path d="M156 52.6C155.047 52.3214 154.037 52.2993 153.072 52.536C152.41 52.9022 151.842 53.4187 151.416 54.044H151.448C151.804 53.712 152.812 53.244 155.468 54.144C155.582 54.1855 155.704 54.2006 155.824 54.1881C155.945 54.1757 156.061 54.1359 156.164 54.072C156.304 53.996 156.417 53.8802 156.491 53.7393C156.564 53.5984 156.594 53.4388 156.576 53.2809C156.559 53.123 156.495 52.9739 156.392 52.8527C156.289 52.7314 156.153 52.6434 156 52.6Z" fill="#407BFF"/>
<path opacity="0.7" d="M156 52.6C155.047 52.3214 154.037 52.2993 153.072 52.536C152.41 52.9022 151.842 53.4187 151.416 54.044H151.448C151.804 53.712 152.812 53.244 155.468 54.144C155.582 54.1855 155.704 54.2006 155.824 54.1881C155.945 54.1757 156.061 54.1359 156.164 54.072C156.304 53.996 156.417 53.8802 156.491 53.7393C156.564 53.5984 156.594 53.4388 156.576 53.2809C156.559 53.123 156.495 52.9739 156.392 52.8527C156.289 52.7314 156.153 52.6434 156 52.6Z" fill="white"/>
<path d="M110.54 70.744C110.06 71.68 109.696 71.78 109.388 71.62C109.08 71.46 108.952 71.112 109.428 70.176C109.904 69.24 112.72 64.364 113.028 64.52C113.336 64.676 111.02 69.808 110.54 70.744Z" fill="#263238"/>
<path opacity="0.6" d="M110.54 70.744C110.06 71.68 109.696 71.78 109.388 71.62C109.08 71.46 108.952 71.112 109.428 70.176C109.904 69.24 112.72 64.364 113.028 64.52C113.336 64.676 111.02 69.808 110.54 70.744Z" fill="white"/>
<path opacity="0.9" d="M109.24 71.508C109.282 71.1837 109.388 70.871 109.552 70.588C109.976 69.76 112.236 65.828 112.956 65.06C113.052 64.748 113.084 64.548 113.028 64.52C112.72 64.364 109.908 69.24 109.428 70.176C109.04 70.936 109.056 71.312 109.24 71.508Z" fill="white"/>
<path d="M109.428 70.176C108.952 71.112 108.584 71.208 108.28 71.052C107.976 70.896 107.84 70.54 108.316 69.608C108.792 68.676 111.608 63.792 111.916 63.952C112.224 64.112 109.908 69.24 109.428 70.176Z" fill="#263238"/>
<path opacity="0.6" d="M109.428 70.176C108.952 71.112 108.584 71.208 108.28 71.052C107.976 70.896 107.84 70.54 108.316 69.608C108.792 68.676 111.608 63.792 111.916 63.952C112.224 64.112 109.908 69.24 109.428 70.176Z" fill="white"/>
<path opacity="0.9" d="M108.128 70.94C108.17 70.6156 108.276 70.3028 108.44 70.02C108.864 69.188 111.124 65.26 111.844 64.492C111.94 64.18 111.972 63.98 111.916 63.952C111.608 63.792 108.796 68.672 108.316 69.608C107.928 70.364 107.944 70.74 108.128 70.94Z" fill="white"/>
<path d="M108.316 69.6C107.84 70.532 107.476 70.632 107.168 70.476C106.86 70.32 106.728 69.964 107.208 69.028C107.688 68.092 110.5 63.216 110.808 63.372C111.116 63.528 108.8 68.672 108.316 69.6Z" fill="#263238"/>
<path opacity="0.6" d="M108.316 69.6C107.84 70.532 107.476 70.632 107.168 70.476C106.86 70.32 106.728 69.964 107.208 69.028C107.688 68.092 110.5 63.216 110.808 63.372C111.116 63.528 108.8 68.672 108.316 69.6Z" fill="white"/>
<path opacity="0.9" d="M107.016 70.372C107.057 70.0463 107.163 69.7321 107.328 69.448C107.756 68.62 110.016 64.692 110.736 63.924C110.828 63.612 110.864 63.412 110.804 63.38C110.5 63.224 107.684 68.104 107.204 69.036C106.8 69.796 106.832 70.172 107.016 70.372Z" fill="white"/>
<path d="M107.2 69.036C106.72 69.972 106.356 70.072 106.048 69.916C105.74 69.76 105.608 69.404 106.088 68.468C106.568 67.532 109.38 62.656 109.688 62.812C109.996 62.968 107.684 68.104 107.2 69.036Z" fill="#263238"/>
<path opacity="0.6" d="M107.2 69.036C106.72 69.972 106.356 70.072 106.048 69.916C105.74 69.76 105.608 69.404 106.088 68.468C106.568 67.532 109.38 62.656 109.688 62.812C109.996 62.968 107.684 68.104 107.2 69.036Z" fill="white"/>
<path opacity="0.9" d="M105.904 69.804C105.947 69.4782 106.055 69.1641 106.22 68.88C106.644 68.052 108.904 64.12 109.624 63.352C109.716 63.04 109.752 62.84 109.696 62.812C109.388 62.656 106.576 67.532 106.096 68.468C105.708 69.228 105.72 69.6 105.904 69.804Z" fill="white"/>
<path d="M106.096 68.468C105.616 69.404 105.252 69.504 104.944 69.344C104.636 69.184 104.508 68.832 104.984 67.9C105.46 66.968 108.276 62.084 108.584 62.244C108.892 62.404 106.576 67.532 106.096 68.468Z" fill="#263238"/>
<path opacity="0.6" d="M106.096 68.468C105.616 69.404 105.252 69.504 104.944 69.344C104.636 69.184 104.508 68.832 104.984 67.9C105.46 66.968 108.276 62.084 108.584 62.244C108.892 62.404 106.576 67.532 106.096 68.468Z" fill="white"/>
<path opacity="0.9" d="M104.8 69.232C104.842 68.9077 104.948 68.595 105.112 68.312C105.536 67.48 107.796 63.552 108.516 62.784C108.612 62.472 108.644 62.272 108.588 62.244C108.28 62.084 105.468 66.964 104.988 67.9C104.596 68.66 104.612 69.036 104.8 69.232Z" fill="white"/>
<path d="M104.984 67.9C104.508 68.832 104.14 68.932 103.836 68.776C103.532 68.62 103.396 68.264 103.876 67.332C104.356 66.4 107.164 61.516 107.476 61.676C107.788 61.836 105.464 66.964 104.984 67.9Z" fill="#407BFF"/>
<path opacity="0.5" d="M104.984 67.9C104.508 68.832 104.14 68.932 103.836 68.776C103.532 68.62 103.396 68.264 103.876 67.332C104.356 66.4 107.164 61.516 107.476 61.676C107.788 61.836 105.464 66.964 104.984 67.9Z" fill="white"/>
<path opacity="0.9" d="M103.684 68.664C103.725 68.3395 103.831 68.0265 103.996 67.744C104.42 66.912 106.68 62.984 107.4 62.216C107.496 61.904 107.528 61.704 107.472 61.676C107.164 61.516 104.352 66.396 103.872 67.332C103.484 68.088 103.5 68.464 103.684 68.664Z" fill="white"/>
<path d="M103.876 67.332C103.396 68.264 103.032 68.364 102.724 68.208C102.416 68.052 102.284 67.696 102.764 66.76C103.244 65.824 106.056 60.948 106.364 61.104C106.672 61.26 104.352 66.4 103.876 67.332Z" fill="#407BFF"/>
<path opacity="0.5" d="M103.876 67.332C103.396 68.264 103.032 68.364 102.724 68.208C102.416 68.052 102.284 67.696 102.764 66.76C103.244 65.824 106.056 60.948 106.364 61.104C106.672 61.26 104.352 66.4 103.876 67.332Z" fill="white"/>
<path opacity="0.9" d="M102.572 68.096C102.613 67.7696 102.72 67.4551 102.888 67.172C103.312 66.344 105.572 62.412 106.292 61.648C106.384 61.336 106.42 61.136 106.36 61.104C106.056 60.948 103.244 65.828 102.76 66.76C102.376 67.52 102.4 67.896 102.572 68.096Z" fill="white"/>
<path d="M102.764 66.76C102.284 67.696 101.92 67.796 101.612 67.64C101.304 67.484 101.172 67.128 101.652 66.192C102.132 65.256 104.944 60.38 105.252 60.536C105.56 60.692 103.244 65.828 102.764 66.76Z" fill="#407BFF"/>
<path opacity="0.5" d="M102.764 66.76C102.284 67.696 101.92 67.796 101.612 67.64C101.304 67.484 101.172 67.128 101.652 66.192C102.132 65.256 104.944 60.38 105.252 60.536C105.56 60.692 103.244 65.828 102.764 66.76Z" fill="white"/>
<path opacity="0.9" d="M101.46 67.528C101.505 67.2026 101.612 66.8889 101.776 66.604C102.2 65.776 104.46 61.844 105.18 61.076C105.276 60.764 105.308 60.564 105.252 60.536C104.944 60.38 102.132 65.256 101.652 66.192C101.264 66.952 101.276 67.328 101.46 67.528Z" fill="white"/>
<path d="M101.652 66.192C101.172 67.128 100.808 67.228 100.5 67.068C100.192 66.908 100.064 66.556 100.54 65.624C101.016 64.692 103.832 59.808 104.14 59.968C104.448 60.128 102.132 65.256 101.652 66.192Z" fill="#263238"/>
<path opacity="0.6" d="M101.652 66.192C101.172 67.128 100.808 67.228 100.5 67.068C100.192 66.908 100.064 66.556 100.54 65.624C101.016 64.692 103.832 59.808 104.14 59.968C104.448 60.128 102.132 65.256 101.652 66.192Z" fill="white"/>
<path opacity="0.9" d="M100.352 66.956C100.394 66.6316 100.5 66.3188 100.664 66.036C101.088 65.204 103.348 61.276 104.068 60.508C104.164 60.196 104.196 59.996 104.14 59.968C103.832 59.808 101.02 64.688 100.54 65.624C100.152 66.4 100.168 66.76 100.352 66.956Z" fill="white"/>
<path d="M100.54 65.624C100.064 66.556 99.696 66.656 99.392 66.5C99.088 66.344 98.952 65.988 99.432 65.052C99.912 64.116 102.72 59.24 103.032 59.396C103.344 59.552 101.02 64.688 100.54 65.624Z" fill="#263238"/>
<path opacity="0.6" d="M100.54 65.624C100.064 66.556 99.696 66.656 99.392 66.5C99.088 66.344 98.952 65.988 99.432 65.052C99.912 64.116 102.72 59.24 103.032 59.396C103.344 59.552 101.02 64.688 100.54 65.624Z" fill="white"/>
<path opacity="0.9" d="M99.24 66.4C99.2814 66.0743 99.3875 65.7601 99.552 65.476C99.976 64.648 102.24 60.72 102.956 59.952C103.052 59.64 103.084 59.44 103.028 59.408C102.72 59.252 99.908 64.132 99.428 65.064C99.04 65.812 99.056 66.188 99.24 66.4Z" fill="white"/>
<path d="M116.4 67.144C121.148 70.592 128.956 78.972 133.708 82.42C143.016 89.176 174.652 103.396 174.652 103.396C175.158 103.653 175.745 103.7 176.285 103.525C176.824 103.35 177.273 102.969 177.532 102.464C177.791 101.959 177.838 101.372 177.664 100.832C177.49 100.292 177.109 99.8429 176.604 99.584C176.604 99.584 144.044 85.072 134.552 78.044C130.276 74.88 123.372 67.184 119.088 64.024C115.768 61.58 104.38 56.572 104.38 56.572C103.916 56.3358 103.378 56.2934 102.883 56.4538C102.388 56.6143 101.977 56.9647 101.74 57.428C101.622 57.6578 101.551 57.9085 101.531 58.1658C101.51 58.423 101.54 58.6819 101.62 58.9274C101.699 59.173 101.827 59.4005 101.994 59.5969C102.162 59.7932 102.366 59.9547 102.596 60.072C102.596 60.072 113.252 64.868 116.4 67.144Z" fill="#407BFF"/>
<path d="M162.936 72.684C163.236 73.708 163.468 74.684 163.7 75.7C163.932 76.716 164.12 77.72 164.292 78.748C164.464 79.776 164.596 80.816 164.692 81.884C164.792 82.9991 164.792 84.1209 164.692 85.236C164.628 85.9028 164.474 86.558 164.236 87.184C164.082 87.5708 163.874 87.9332 163.616 88.26C163.494 88.4143 163.361 88.5588 163.216 88.692C163.091 88.8219 162.957 88.9435 162.816 89.056C161.86 89.7938 160.775 90.346 159.616 90.684C157.58 91.3026 155.467 91.6285 153.34 91.652L153.092 89.684C154.934 89.1884 156.733 88.545 158.472 87.76C159.207 87.4353 159.883 86.9906 160.472 86.444C160.523 86.3949 160.57 86.3414 160.612 86.284C160.65 86.2395 160.684 86.1913 160.712 86.14C160.753 86.065 160.787 85.9859 160.812 85.904C160.895 85.5797 160.941 85.2468 160.948 84.912C160.976 84.0243 160.929 83.1358 160.808 82.256C160.696 81.328 160.544 80.384 160.36 79.456C160.004 77.568 159.56 75.632 159.084 73.784L162.936 72.684Z" fill="#803E3C"/>
<path d="M162.724 70.4C164.872 71.908 165.58 79.708 165.58 79.708L158.916 80.508C158.414 78.254 158.117 75.9594 158.028 73.652C157.948 70 160.12 68.584 162.724 70.4Z" fill="#407BFF"/>
<path opacity="0.7" d="M162.724 70.4C164.872 71.908 165.58 79.708 165.58 79.708L158.916 80.508C158.414 78.254 158.117 75.9594 158.028 73.652C157.948 70 160.12 68.584 162.724 70.4Z" fill="white"/>
<path d="M153.356 89.712L150.728 88.8L151.108 92.296C151.108 92.296 153.508 92.556 153.784 91.292L153.356 89.712Z" fill="#7F3E3B"/>
<path d="M148.576 89.564L149.024 92.436L151.108 92.312L150.724 88.816L148.576 89.564Z" fill="#7F3E3B"/>
</svg>
